<?xml version="1.0" encoding="UTF-8"?>
<svg version="1.1" xmlns="http://www.w3.org/2000/svg" width="1024" height="1024">
<path d="M0 0 C0.67458252 0.35126953 1.34916504 0.70253906 2.04418945 1.06445312 C9.23571118 4.87347098 16.22994054 9.04119273 23.23828125 13.17407227 C34.28557588 19.67686488 45.50099167 25.85878218 56.75050354 32.00259399 C60.51404073 34.05828907 64.26754725 36.13111783 68.015625 38.21484375 C104.96041647 61.36580483 104.96041647 61.36580483 145 73.875 C145 74.535 145 75.195 145 75.875 C145.72662842 76.00229492 146.45325684 76.12958984 147.2019043 76.26074219 C149.89406799 76.85174505 152.22270132 77.66053632 154.76953125 78.703125 C156.19736938 79.2753479 156.19736938 79.2753479 157.65405273 79.85913086 C159.21748413 80.48573608 159.21748413 80.48573608 160.8125 81.125 C172.71273499 85.80359863 184.77387747 89.87687849 196.9375 93.8125 C197.80162506 94.09299194 198.66575012 94.37348389 199.55606079 94.66247559 C214.35052667 100.34616464 214.35052667 100.34616464 229.66381836 102.82006836 C232 102.875 232 102.875 234 104.875 C236.15820215 105.6290712 236.15820215 105.6290712 238.74609375 106.21484375 C239.78677002 106.46766113 240.82744629 106.72047852 241.8996582 106.98095703 C243.067146 107.25536621 244.23463379 107.52977539 245.4375 107.8125 C246.6649292 108.10753418 247.8923584 108.40256836 249.15698242 108.70654297 C258.07039118 110.82562368 267.02352333 112.73570347 275.9921875 114.60546875 C278.28980553 115.08792149 280.58741288 115.57042507 282.88500977 116.05297852 C287.46262853 117.01351442 292.04415027 117.95165522 296.62866211 118.87866211 C298.77993343 119.32725176 300.93106273 119.77652319 303.08203125 120.2265625 C304.06440765 120.4191716 305.04678406 120.6117807 306.05892944 120.81022644 C313.44600024 122.38270027 319.38068343 124.54084858 324.14588928 130.60652161 C330.51220911 141.82924881 328.29450709 159.25930396 328.265625 171.79296875 C328.26697843 173.90106755 328.26892454 176.00916604 328.27142334 178.11726379 C328.27435633 182.52718082 328.27014523 186.93701636 328.26074219 191.34692383 C328.24949458 196.87974277 328.25601785 202.41236622 328.26762009 207.94517803 C328.32545279 240.43051725 327.77605155 272.86328911 324.25 305.1875 C324.16763092 305.96565063 324.08526184 306.74380127 324.00039673 307.54553223 C321.02014552 335.54992335 316.60764994 363.28307404 310.83638 390.84405518 C309.64987698 396.51465777 308.57220225 402.10839028 308 407.875 C307.34 407.875 306.68 407.875 306 407.875 C305.89300781 408.97328125 305.78601563 410.0715625 305.67578125 411.203125 C300.32982671 453.41677643 278.95110871 498.27378885 260 535.875 C259.48614746 536.90383301 258.97229492 537.93266602 258.44287109 538.99267578 C241.44842909 572.90314803 220.58440386 604.09695624 196.48779297 633.34912109 C193.26943638 637.26238548 190.22629929 641.252617 187.29467773 645.38647461 C186.86743408 645.87768799 186.44019043 646.36890137 186 646.875 C185.34 646.875 184.68 646.875 184 646.875 C183.76796875 647.42542969 183.5359375 647.97585938 183.296875 648.54296875 C181.64401996 651.51512074 179.5739052 653.70202151 177.25 656.1875 C176.77554443 656.69587402 176.30108887 657.20424805 175.81225586 657.72802734 C174.77402534 658.84016693 173.73415386 659.95077628 172.69287109 661.06005859 C170.8811114 663.00246148 169.08996082 664.96256965 167.30078125 666.92578125 C166.05487489 668.28402608 164.80878373 669.64210143 163.5625 671 C162.97178711 671.65137939 162.38107422 672.30275879 161.77246094 672.97387695 C160.92796387 673.88786255 160.92796387 673.88786255 160.06640625 674.8203125 C159.57084229 675.36187988 159.07527832 675.90344727 158.56469727 676.46142578 C156.83661369 678.02260598 155.07813063 678.85038129 153 679.875 C152.72027344 680.44863281 152.44054687 681.02226563 152.15234375 681.61328125 C150.35829187 685.13448817 147.46571808 687.43215269 144.5625 690.0625 C143.97662109 690.60841797 143.39074219 691.15433594 142.78710938 691.71679688 C138.38926035 695.74524655 138.38926035 695.74524655 135 696.875 C134.67 697.865 134.34 698.855 134 699.875 C132.4089357 701.31302182 130.7513985 702.67825335 129.0625 704 C125.32291841 706.98012929 121.70013597 710.00577143 118.1875 713.25 C112.61889052 718.31637729 106.72491382 722.91640832 100.76708984 727.51074219 C99.07580387 728.81647665 97.39069709 730.1297745 95.70703125 731.4453125 C80.35550884 743.40483946 64.22322006 754.1461611 48 764.875 C48.33 765.535 48.66 766.195 49 766.875 C48.12472656 766.97167969 47.24945312 767.06835938 46.34765625 767.16796875 C42.68245306 767.94206651 40.55724217 769.13738372 37.4375 771.1875 C36.30153216 771.91467547 35.16334357 772.63838871 34.0234375 773.359375 C33.39276367 773.75833984 32.76208984 774.15730469 32.11230469 774.56835938 C25.35267331 778.74976797 18.39919025 782.61791574 11.46191406 786.49462891 C9.93056622 787.35324064 8.40309839 788.21885826 6.88183594 789.09521484 C-2.31904615 794.38326629 -9.68260618 796.42291023 -20.25 794.1875 C-23.12405007 792.81579429 -25.76407873 791.20896124 -28.43359375 789.4765625 C-31.70622138 787.43428346 -35.06790305 785.56310698 -38.4375 783.6875 C-44.37017422 780.37408318 -50.26494539 777.00283638 -56.125 773.5625 C-56.82294678 773.15427002 -57.52089355 772.74604004 -58.23999023 772.32543945 C-62.25069647 769.96268946 -66.15180737 767.49440838 -70 764.875 C-70.66 765.205 -71.32 765.535 -72 765.875 C-72 764.885 -72 763.895 -72 762.875 C-72.71986084 762.61468994 -73.43972168 762.35437988 -74.18139648 762.08618164 C-77.11749008 760.82451336 -79.48155215 759.32690151 -82.09765625 757.49609375 C-83.05841064 756.82642578 -84.01916504 756.15675781 -85.0090332 755.46679688 C-86.01667725 754.75587891 -87.02432129 754.04496094 -88.0625 753.3125 C-89.09656982 752.58740234 -90.13063965 751.86230469 -91.19604492 751.11523438 C-101.73820902 743.69811931 -111.98838581 735.99553151 -122 727.875 C-123.22903158 726.8852489 -124.45820923 725.89567916 -125.6875 724.90625 C-144.00883579 710.13069072 -161.32340187 694.55498683 -178.0625 678 C-178.75972168 677.31583008 -179.45694336 676.63166016 -180.17529297 675.92675781 C-180.80967285 675.29350586 -181.44405273 674.66025391 -182.09765625 674.0078125 C-182.94082397 673.17080811 -182.94082397 673.17080811 -183.80102539 672.31689453 C-185 670.875 -185 670.875 -185 668.875 C-185.66 668.875 -186.32 668.875 -187 668.875 C-188.375 667.51171875 -188.375 667.51171875 -190 665.5625 C-192.88858397 662.15852552 -195.84793678 658.84417602 -198.875 655.5625 C-202.91279322 651.13003526 -206.77307434 646.59757823 -210.53515625 641.9296875 C-212.34085175 639.6918842 -214.15979312 637.47018101 -215.99609375 635.2578125 C-228.96508825 619.57658079 -240.42740732 602.97893053 -251.58056641 585.97119141 C-254.19787505 581.78723221 -254.19787505 581.78723221 -258 578.875 C-258.12632812 578.16472656 -258.25265625 577.45445312 -258.3828125 576.72265625 C-259.18173811 573.03647417 -260.86237355 570.49362935 -262.875 567.3125 C-263.57367188 566.19746094 -264.27234375 565.08242188 -264.9921875 563.93359375 C-267.82108213 559.19042419 -267.82108213 559.19042419 -272 555.875 C-272.33543537 553.87535147 -272.66840062 551.87528822 -273 549.875 C-274.18902146 547.04097877 -274.18902146 547.04097877 -275.72265625 544.2578125 C-276.26083984 543.23945312 -276.79902344 542.22109375 -277.35351562 541.171875 C-277.91748047 540.12515625 -278.48144531 539.0784375 -279.0625 538 C-279.63033203 536.93007813 -280.19816406 535.86015625 -280.78320312 534.7578125 C-282.18130465 532.12609199 -283.58707235 529.49878154 -285 526.875 C-285.66 526.875 -286.32 526.875 -287 526.875 C-289 520.875 -289 520.875 -289.34765625 518.66796875 C-290.21793477 514.94192599 -291.82593728 511.63695977 -293.4375 508.1875 C-298.86477337 496.31280812 -303.40179057 484.08863899 -308 471.875 C-308.66 471.875 -309.32 471.875 -310 471.875 C-310.98120464 468.82236336 -310.98120464 466.92763664 -310 463.875 C-310.99 463.875 -311.98 463.875 -313 463.875 C-312.67 462.885 -312.34 461.895 -312 460.875 C-312.60541478 458.19921196 -312.60541478 458.19921196 -313.65234375 455.25390625 C-314.01650391 454.15369141 -314.38066406 453.05347656 -314.75585938 451.91992188 C-315.14580078 450.77072266 -315.53574219 449.62152344 -315.9375 448.4375 C-316.70192393 446.16975154 -317.46126302 443.90028097 -318.21484375 441.62890625 C-318.72712524 440.11792358 -318.72712524 440.11792358 -319.24975586 438.57641602 C-320 435.875 -320 435.875 -320 431.875 C-320.66 431.545 -321.32 431.215 -322 430.875 C-322.4140625 428.80859375 -322.4140625 428.80859375 -322.625 426.3125 C-322.69976562 425.48621094 -322.77453125 424.65992188 -322.8515625 423.80859375 C-322.90054688 423.17050781 -322.94953125 422.53242187 -323 421.875 C-323.99 421.545 -324.98 421.215 -326 420.875 C-325.34 420.875 -324.68 420.875 -324 420.875 C-324.1451001 420.33649414 -324.2902002 419.79798828 -324.43969727 419.24316406 C-328.06116793 405.64889399 -331.07990092 391.99490791 -333.75 378.1875 C-333.89825226 377.42449585 -334.04650452 376.6614917 -334.19924927 375.87536621 C-339.38269434 349.1029282 -339.38269434 349.1029282 -339 340.875 C-339.66 340.545 -340.32 340.215 -341 339.875 C-340.67 338.225 -340.34 336.575 -340 334.875 C-340.66 334.545 -341.32 334.215 -342 333.875 C-342.05551025 332.83778809 -342.11102051 331.80057617 -342.16821289 330.73193359 C-342.64669233 322.0624926 -343.26827915 313.42362188 -344.0534668 304.77636719 C-347.19519859 270.13115291 -348.18221954 235.5850556 -348.1875 200.8125 C-348.18802242 200.03883591 -348.18854485 199.26517181 -348.1890831 198.46806335 C-348.19885432 182.72847496 -348.13784233 166.98773468 -347.67578125 151.25390625 C-347.64317451 149.70823219 -347.64317451 149.70823219 -347.60990906 148.1313324 C-347.36517896 141.31556187 -346.71488884 134.22541964 -342.28125 128.75390625 C-341.39953125 128.10228516 -341.39953125 128.10228516 -340.5 127.4375 C-339.9121875 126.98503906 -339.324375 126.53257812 -338.71875 126.06640625 C-334.37915164 123.05827557 -330.6077552 122.00112794 -325.4921875 121 C-324.23210373 120.74500732 -324.23210373 120.74500732 -322.94656372 120.48486328 C-320.25725853 119.94197341 -317.56623325 119.40824149 -314.875 118.875 C-312.20562007 118.33977145 -309.5366215 117.80267736 -306.8677063 117.26513672 C-305.20845692 116.93164705 -303.54886984 116.59983135 -301.8888855 116.27001953 C-297.24788172 115.34500972 -292.63489119 114.34807386 -288.03225708 113.24658203 C-286 112.875 -286 112.875 -282 112.875 C-281.67 112.215 -281.34 111.555 -281 110.875 C-279.0900915 110.61155527 -277.17817642 110.35775562 -275.26019287 110.16156006 C-271.63789886 109.7023051 -268.19984353 108.69630377 -264.6953125 107.6953125 C-263.9312912 107.48188202 -263.1672699 107.26845154 -262.38009644 107.04855347 C-259.96019405 106.37104255 -257.54263055 105.68556784 -255.125 105 C-253.51186019 104.54767236 -251.8985799 104.09584542 -250.28515625 103.64453125 C-246.5067395 102.58563599 -242.73246877 101.51290509 -238.96008301 100.43273926 C-237.20069326 99.93210703 -235.43794509 99.44331317 -233.67480469 98.95605469 C-232.76891602 98.69985352 -231.86302734 98.44365234 -230.9296875 98.1796875 C-230.17671387 97.97069824 -229.42374023 97.76170898 -228.64794922 97.54638672 C-226.78749927 96.99965678 -226.78749927 96.99965678 -226 94.875 C-223.98841321 94.70158735 -221.9767588 94.52893672 -219.96484375 94.359375 C-213.77886233 93.34875353 -207.88724347 90.97703291 -202 88.875 C-202 88.215 -202 87.555 -202 86.875 C-200.94039062 86.80796875 -199.88078125 86.7409375 -198.7890625 86.671875 C-192.63209007 85.88978039 -187.09299204 83.43787319 -181.375 81.125 C-180.15804443 80.639104 -178.94108887 80.15320801 -177.68725586 79.65258789 C-149.79646992 68.46115522 -122.47097371 56.11854578 -96 41.875 C-94.60177002 41.12645752 -94.60177002 41.12645752 -93.17529297 40.36279297 C-82.08980681 34.42603335 -71.05689385 28.40315457 -60.125 22.1875 C-59.23312988 21.68234863 -58.34125977 21.17719727 -57.42236328 20.65673828 C-56.60493652 20.18864746 -55.78750977 19.72055664 -54.9453125 19.23828125 C-53.87047607 18.62400269 -53.87047607 18.62400269 -52.77392578 17.99731445 C-50.84901596 16.87034829 -50.84901596 16.87034829 -49 14.875 C-46.95528168 13.81900098 -44.8888246 12.80491277 -42.8125 11.8125 C-36.68134528 8.83428052 -30.84931792 5.49725625 -25.0637207 1.89624023 C-16.2447943 -3.55035378 -9.36168741 -5.08209454 0 0 Z " fill="#00140E" transform="translate(522,113.125)"/>
<path d="M0 0 C8.1755211 5.73454408 14.0578806 13.03942725 16 23 C16.1418907 24.68358775 16.22014505 26.37320743 16.25 28.0625 C16.28867187 29.34833984 16.28867187 29.34833984 16.328125 30.66015625 C15.84245434 35.60358977 14.40067361 40.2460546 13 45 C13.7892688 45.48859497 13.7892688 45.48859497 14.59448242 45.98706055 C15.34060791 46.44894775 16.0867334 46.91083496 16.85546875 47.38671875 C17.69440674 47.9060498 18.53334473 48.42538086 19.39770508 48.96044922 C21.2869067 50.1299786 23.17606559 51.299577 25.06518555 52.46923828 C29.7846765 55.39121741 34.50465073 58.312403 39.2265625 61.23046875 C53.53604816 70.07595772 67.8012796 78.99142283 82.06152344 87.91601562 C85.10326437 89.81941247 88.14527243 91.72238106 91.1875 93.625 C92.18136719 94.24656982 93.17523437 94.86813965 94.19921875 95.50854492 C100.7254858 99.58692724 107.26507184 103.64319604 113.8125 107.6875 C137.26378975 122.17585983 137.26378975 122.17585983 146 128 C146.54527344 127.46890625 147.09054687 126.9378125 147.65234375 126.390625 C155.55941296 118.98366102 163.53380422 114.62303652 174.50390625 114.78515625 C183.68429473 115.57533053 191.99289128 119.49232258 198.25 126.25 C204.78199372 134.38384504 206.96850873 143.75768847 206 154 C203.04583407 165.57175878 197.00362936 173.82475942 186.75 179.9375 C184 181 184 181 180 181 C180 229.84 180 278.68 180 329 C181.65 329.33 183.3 329.66 185 330 C194.1882463 333.78244061 199.80600825 339.87829375 203.9375 348.8125 C207.46961177 358.07992197 206.90642317 366.92417475 203 376 C198.41299823 384.59020332 192.26612836 390.96699955 182.99609375 394.296875 C172.65072302 396.72473254 163.77595441 395.85932674 154.453125 390.703125 C152 389 152 389 149.984375 386.734375 C149.32953125 386.16203125 148.6746875 385.5896875 148 385 C144.39786813 385.37469337 141.7904203 386.48069703 138.71875 388.34375 C137.89197754 388.83931396 137.06520508 389.33487793 136.21337891 389.84545898 C135.31796387 390.39145752 134.42254883 390.93745605 133.5 391.5 C131.5186839 392.68955982 129.53688815 393.87832098 127.5546875 395.06640625 C126.49604492 395.70336426 125.43740234 396.34032227 124.34667969 396.99658203 C119.07653797 400.15143926 113.77597398 403.25387608 108.47436523 406.35546875 C106.61071957 407.44585523 104.74766943 408.53725288 102.88476562 409.62890625 C94.29590145 414.66111668 85.69866326 419.67889615 77.09814453 424.69116211 C68.61210731 429.63841617 60.13814524 434.60611469 51.66543579 439.57614136 C39.45556138 446.73793601 27.23108501 453.87448066 15 461 C15.14308594 462.57587891 15.14308594 462.57587891 15.2890625 464.18359375 C16.32509295 476.69049371 15.77717664 485.56130069 8 496 C2.07268476 502.66504975 -4.72652402 506.44819075 -13.62109375 507.37890625 C-24.53197564 507.71952794 -33.09095095 505.77176605 -41.17578125 498.1953125 C-48.63672592 489.21661677 -50.69592309 479.34516476 -50 468 C-49.51286599 465.53891424 -48.84303683 463.37104109 -48 461 C-49.17175781 460.69255859 -49.17175781 460.69255859 -50.3671875 460.37890625 C-55.34574093 458.48919726 -59.61687495 455.74883998 -64.125 452.9375 C-66.19637838 451.66107494 -68.26800382 450.38505075 -70.33984375 449.109375 C-71.42765137 448.43712891 -72.51545898 447.76488281 -73.63623047 447.07226562 C-78.72129059 443.93959105 -83.82869095 440.84390272 -88.93661499 437.74871826 C-91.89360902 435.9564726 -94.8490241 434.16162636 -97.8046875 432.3671875 C-99.00226697 431.64028023 -100.19985813 430.91339225 -101.39746094 430.18652344 C-101.99167847 429.82586792 -102.585896 429.4652124 -103.19812012 429.09362793 C-103.79274048 428.73273071 -104.38736084 428.3718335 -105 428 C-113.23601563 423.00125574 -121.47165193 418.00188909 -129.70605469 413.00048828 C-131.8445661 411.70172142 -133.98322915 410.4032042 -136.12207031 409.10498047 C-138.1056479 407.90087231 -140.08889197 406.69621453 -142.07177734 405.4909668 C-143.95638959 404.34603837 -145.84210224 403.20291897 -147.72900391 402.06176758 C-152.51262877 399.16048172 -157.25355876 396.20771498 -161.953125 393.171875 C-163.39764038 392.24810059 -163.39764038 392.24810059 -164.87133789 391.30566406 C-166.70738755 390.12842754 -168.53520782 388.93822568 -170.35327148 387.73339844 C-171.57639038 386.95270996 -171.57639038 386.95270996 -172.82421875 386.15625 C-173.53666748 385.69025391 -174.24911621 385.22425781 -174.9831543 384.74414062 C-177.01415366 383.74891051 -177.01415366 383.74891051 -179.11303711 384.76171875 C-182.28326777 386.84211853 -185.31960865 389.08911486 -188.3671875 391.34375 C-195.98527463 396.13613716 -205.28339144 396.16221447 -214 395 C-223.11417917 392.2576806 -229.46350929 386.96647206 -234.2734375 378.8515625 C-238.78706666 370.24045438 -239.3461981 360.64912709 -237.421875 351.14453125 C-234.33542226 342.32008227 -227.88003285 335.15941032 -219.625 330.875 C-216.73545787 329.5448933 -215.21394481 329 -212 329 C-212.33 280.49 -212.66 231.98 -213 182 C-216.3 180.68 -219.6 179.36 -223 178 C-230.93562974 172.13453454 -235.32312316 165.50468165 -238 156 C-239.06510128 144.20089096 -237.63098289 135.25603304 -230.01953125 126.07421875 C-223.60535915 119.48635533 -215.3810678 114.97156104 -206.125 114.625 C-195.49703092 115.01561448 -186.32765993 119.28183782 -179 127 C-175.36222387 125.6518016 -172.20839942 124.0139723 -168.9296875 121.9453125 C-167.96071533 121.33671387 -166.99174316 120.72811523 -165.9934082 120.10107422 C-164.9643335 119.44896973 -163.93525879 118.79686523 -162.875 118.125 C-161.80403076 117.45098145 -160.73306152 116.77696289 -159.62963867 116.08251953 C-156.41702253 114.05930981 -153.20796422 112.0305758 -150 110 C-148.31123706 108.93222976 -146.62243846 107.86451591 -144.93359375 106.796875 C-142.62348363 105.33632193 -140.31347319 103.87561603 -138.00415039 102.41381836 C-131.42279638 98.25304876 -124.80453702 94.15336594 -118.18017578 90.06152344 C-108.46115155 84.05572407 -98.77701053 77.99448731 -89.09228516 71.93359375 C-85.94194905 69.96370097 -82.78961468 67.99704272 -79.63671875 66.03125 C-77.54944276 64.72922503 -75.46220258 63.42714266 -73.375 62.125 C-72.3754126 61.50181885 -71.3758252 60.8786377 -70.34594727 60.23657227 C-63.6474424 56.0525934 -57.00384657 51.79451178 -50.4140625 47.44140625 C-48 46 -48 46 -46 46 C-46.20496094 45.46890625 -46.40992188 44.9378125 -46.62109375 44.390625 C-46.89050781 43.68421875 -47.15992188 42.9778125 -47.4375 42.25 C-47.70433594 41.55390625 -47.97117187 40.8578125 -48.24609375 40.140625 C-51.32506031 31.39827434 -50.69735518 22.47889721 -47 14 C-42.00859027 5.49947797 -35.33773721 -0.25050416 -25.95703125 -3.3046875 C-16.88412144 -5.43807977 -8.2073822 -4.45166491 0 0 Z " fill="#68F7C1" transform="translate(528,229)"/>
<path d="M0 0 C0.67458252 0.35126953 1.34916504 0.70253906 2.04418945 1.06445312 C9.23571118 4.87347098 16.22994054 9.04119273 23.23828125 13.17407227 C34.28557588 19.67686488 45.50099167 25.85878218 56.75050354 32.00259399 C60.51404073 34.05828907 64.26754725 36.13111783 68.015625 38.21484375 C104.96041647 61.36580483 104.96041647 61.36580483 145 73.875 C145 74.535 145 75.195 145 75.875 C145.72662842 76.00229492 146.45325684 76.12958984 147.2019043 76.26074219 C149.89406799 76.85174505 152.22270132 77.66053632 154.76953125 78.703125 C156.19736938 79.2753479 156.19736938 79.2753479 157.65405273 79.85913086 C159.21748413 80.48573608 159.21748413 80.48573608 160.8125 81.125 C172.71273499 85.80359863 184.77387747 89.87687849 196.9375 93.8125 C197.80162506 94.09299194 198.66575012 94.37348389 199.55606079 94.66247559 C214.35052667 100.34616464 214.35052667 100.34616464 229.66381836 102.82006836 C232 102.875 232 102.875 234 104.875 C236.15820215 105.6290712 236.15820215 105.6290712 238.74609375 106.21484375 C239.78677002 106.46766113 240.82744629 106.72047852 241.8996582 106.98095703 C243.067146 107.25536621 244.23463379 107.52977539 245.4375 107.8125 C246.6649292 108.10753418 247.8923584 108.40256836 249.15698242 108.70654297 C258.07039118 110.82562368 267.02352333 112.73570347 275.9921875 114.60546875 C278.28980553 115.08792149 280.58741288 115.57042507 282.88500977 116.05297852 C287.46262853 117.01351442 292.04415027 117.95165522 296.62866211 118.87866211 C298.77993343 119.32725176 300.93106273 119.77652319 303.08203125 120.2265625 C304.06440765 120.4191716 305.04678406 120.6117807 306.05892944 120.81022644 C313.44600024 122.38270027 319.38068343 124.54084858 324.14588928 130.60652161 C330.51220911 141.82924881 328.29450709 159.25930396 328.265625 171.79296875 C328.26697843 173.90106755 328.26892454 176.00916604 328.27142334 178.11726379 C328.27435633 182.52718082 328.27014523 186.93701636 328.26074219 191.34692383 C328.24949458 196.87974277 328.25601785 202.41236622 328.26762009 207.94517803 C328.32545279 240.43051725 327.77605155 272.86328911 324.25 305.1875 C324.16763092 305.96565063 324.08526184 306.74380127 324.00039673 307.54553223 C321.02014552 335.54992335 316.60764994 363.28307404 310.83638 390.84405518 C309.64987698 396.51465777 308.57220225 402.10839028 308 407.875 C307.34 407.875 306.68 407.875 306 407.875 C305.89300781 408.97328125 305.78601563 410.0715625 305.67578125 411.203125 C300.32982671 453.41677643 278.95110871 498.27378885 260 535.875 C259.48614746 536.90383301 258.97229492 537.93266602 258.44287109 538.99267578 C241.44842909 572.90314803 220.58440386 604.09695624 196.48779297 633.34912109 C193.26943638 637.26238548 190.22629929 641.252617 187.29467773 645.38647461 C186.86743408 645.87768799 186.44019043 646.36890137 186 646.875 C185.34 646.875 184.68 646.875 184 646.875 C183.76796875 647.42542969 183.5359375 647.97585938 183.296875 648.54296875 C181.64401996 651.51512074 179.5739052 653.70202151 177.25 656.1875 C176.77554443 656.69587402 176.30108887 657.20424805 175.81225586 657.72802734 C174.77402534 658.84016693 173.73415386 659.95077628 172.69287109 661.06005859 C170.8811114 663.00246148 169.08996082 664.96256965 167.30078125 666.92578125 C166.05487489 668.28402608 164.80878373 669.64210143 163.5625 671 C162.97178711 671.65137939 162.38107422 672.30275879 161.77246094 672.97387695 C160.92796387 673.88786255 160.92796387 673.88786255 160.06640625 674.8203125 C159.57084229 675.36187988 159.07527832 675.90344727 158.56469727 676.46142578 C156.83661369 678.02260598 155.07813063 678.85038129 153 679.875 C152.72027344 680.44863281 152.44054687 681.02226563 152.15234375 681.61328125 C150.35829187 685.13448817 147.46571808 687.43215269 144.5625 690.0625 C143.97662109 690.60841797 143.39074219 691.15433594 142.78710938 691.71679688 C138.38926035 695.74524655 138.38926035 695.74524655 135 696.875 C134.67 697.865 134.34 698.855 134 699.875 C132.4089357 701.31302182 130.7513985 702.67825335 129.0625 704 C125.32291841 706.98012929 121.70013597 710.00577143 118.1875 713.25 C112.61889052 718.31637729 106.72491382 722.91640832 100.76708984 727.51074219 C99.07580387 728.81647665 97.39069709 730.1297745 95.70703125 731.4453125 C80.35550884 743.40483946 64.22322006 754.1461611 48 764.875 C48.33 765.535 48.66 766.195 49 766.875 C48.12472656 766.97167969 47.24945312 767.06835938 46.34765625 767.16796875 C42.68245306 767.94206651 40.55724217 769.13738372 37.4375 771.1875 C36.30153216 771.91467547 35.16334357 772.63838871 34.0234375 773.359375 C33.39276367 773.75833984 32.76208984 774.15730469 32.11230469 774.56835938 C25.35267331 778.74976797 18.39919025 782.61791574 11.46191406 786.49462891 C9.93056622 787.35324064 8.40309839 788.21885826 6.88183594 789.09521484 C-2.31904615 794.38326629 -9.68260618 796.42291023 -20.25 794.1875 C-23.12405007 792.81579429 -25.76407873 791.20896124 -28.43359375 789.4765625 C-31.70622138 787.43428346 -35.06790305 785.56310698 -38.4375 783.6875 C-44.37017422 780.37408318 -50.26494539 777.00283638 -56.125 773.5625 C-56.82294678 773.15427002 -57.52089355 772.74604004 -58.23999023 772.32543945 C-62.25069647 769.96268946 -66.15180737 767.49440838 -70 764.875 C-70.66 765.205 -71.32 765.535 -72 765.875 C-72 764.885 -72 763.895 -72 762.875 C-72.71986084 762.61468994 -73.43972168 762.35437988 -74.18139648 762.08618164 C-77.11749008 760.82451336 -79.48155215 759.32690151 -82.09765625 757.49609375 C-83.05841064 756.82642578 -84.01916504 756.15675781 -85.0090332 755.46679688 C-86.01667725 754.75587891 -87.02432129 754.04496094 -88.0625 753.3125 C-89.09656982 752.58740234 -90.13063965 751.86230469 -91.19604492 751.11523438 C-101.73820902 743.69811931 -111.98838581 735.99553151 -122 727.875 C-123.22903158 726.8852489 -124.45820923 725.89567916 -125.6875 724.90625 C-144.00883579 710.13069072 -161.32340187 694.55498683 -178.0625 678 C-178.75972168 677.31583008 -179.45694336 676.63166016 -180.17529297 675.92675781 C-180.80967285 675.29350586 -181.44405273 674.66025391 -182.09765625 674.0078125 C-182.94082397 673.17080811 -182.94082397 673.17080811 -183.80102539 672.31689453 C-185 670.875 -185 670.875 -185 668.875 C-185.66 668.875 -186.32 668.875 -187 668.875 C-188.375 667.51171875 -188.375 667.51171875 -190 665.5625 C-192.88858397 662.15852552 -195.84793678 658.84417602 -198.875 655.5625 C-202.91279322 651.13003526 -206.77307434 646.59757823 -210.53515625 641.9296875 C-212.34085175 639.6918842 -214.15979312 637.47018101 -215.99609375 635.2578125 C-228.96508825 619.57658079 -240.42740732 602.97893053 -251.58056641 585.97119141 C-254.19787505 581.78723221 -254.19787505 581.78723221 -258 578.875 C-258.12632812 578.16472656 -258.25265625 577.45445312 -258.3828125 576.72265625 C-259.18173811 573.03647417 -260.86237355 570.49362935 -262.875 567.3125 C-263.57367188 566.19746094 -264.27234375 565.08242188 -264.9921875 563.93359375 C-267.82108213 559.19042419 -267.82108213 559.19042419 -272 555.875 C-272.33543537 553.87535147 -272.66840062 551.87528822 -273 549.875 C-274.18902146 547.04097877 -274.18902146 547.04097877 -275.72265625 544.2578125 C-276.26083984 543.23945312 -276.79902344 542.22109375 -277.35351562 541.171875 C-277.91748047 540.12515625 -278.48144531 539.0784375 -279.0625 538 C-279.63033203 536.93007813 -280.19816406 535.86015625 -280.78320312 534.7578125 C-282.18130465 532.12609199 -283.58707235 529.49878154 -285 526.875 C-285.66 526.875 -286.32 526.875 -287 526.875 C-289 520.875 -289 520.875 -289.34765625 518.66796875 C-290.21793477 514.94192599 -291.82593728 511.63695977 -293.4375 508.1875 C-298.86477337 496.31280812 -303.40179057 484.08863899 -308 471.875 C-308.66 471.875 -309.32 471.875 -310 471.875 C-310.98120464 468.82236336 -310.98120464 466.92763664 -310 463.875 C-310.99 463.875 -311.98 463.875 -313 463.875 C-312.67 462.885 -312.34 461.895 -312 460.875 C-312.60541478 458.19921196 -312.60541478 458.19921196 -313.65234375 455.25390625 C-314.01650391 454.15369141 -314.38066406 453.05347656 -314.75585938 451.91992188 C-315.14580078 450.77072266 -315.53574219 449.62152344 -315.9375 448.4375 C-316.70192393 446.16975154 -317.46126302 443.90028097 -318.21484375 441.62890625 C-318.72712524 440.11792358 -318.72712524 440.11792358 -319.24975586 438.57641602 C-320 435.875 -320 435.875 -320 431.875 C-320.66 431.545 -321.32 431.215 -322 430.875 C-322.4140625 428.80859375 -322.4140625 428.80859375 -322.625 426.3125 C-322.69976562 425.48621094 -322.77453125 424.65992188 -322.8515625 423.80859375 C-322.90054688 423.17050781 -322.94953125 422.53242187 -323 421.875 C-323.99 421.545 -324.98 421.215 -326 420.875 C-325.34 420.875 -324.68 420.875 -324 420.875 C-324.1451001 420.33649414 -324.2902002 419.79798828 -324.43969727 419.24316406 C-328.06116793 405.64889399 -331.07990092 391.99490791 -333.75 378.1875 C-333.89825226 377.42449585 -334.04650452 376.6614917 -334.19924927 375.87536621 C-339.38269434 349.1029282 -339.38269434 349.1029282 -339 340.875 C-339.66 340.545 -340.32 340.215 -341 339.875 C-340.67 338.225 -340.34 336.575 -340 334.875 C-340.66 334.545 -341.32 334.215 -342 333.875 C-342.05551025 332.83778809 -342.11102051 331.80057617 -342.16821289 330.73193359 C-342.64669233 322.0624926 -343.26827915 313.42362188 -344.0534668 304.77636719 C-347.19519859 270.13115291 -348.18221954 235.5850556 -348.1875 200.8125 C-348.18802242 200.03883591 -348.18854485 199.26517181 -348.1890831 198.46806335 C-348.19885432 182.72847496 -348.13784233 166.98773468 -347.67578125 151.25390625 C-347.64317451 149.70823219 -347.64317451 149.70823219 -347.60990906 148.1313324 C-347.36517896 141.31556187 -346.71488884 134.22541964 -342.28125 128.75390625 C-341.39953125 128.10228516 -341.39953125 128.10228516 -340.5 127.4375 C-339.9121875 126.98503906 -339.324375 126.53257812 -338.71875 126.06640625 C-334.37915164 123.05827557 -330.6077552 122.00112794 -325.4921875 121 C-324.23210373 120.74500732 -324.23210373 120.74500732 -322.94656372 120.48486328 C-320.25725853 119.94197341 -317.56623325 119.40824149 -314.875 118.875 C-312.20562007 118.33977145 -309.5366215 117.80267736 -306.8677063 117.26513672 C-305.20845692 116.93164705 -303.54886984 116.59983135 -301.8888855 116.27001953 C-297.24788172 115.34500972 -292.63489119 114.34807386 -288.03225708 113.24658203 C-286 112.875 -286 112.875 -282 112.875 C-281.67 112.215 -281.34 111.555 -281 110.875 C-279.0900915 110.61155527 -277.17817642 110.35775562 -275.26019287 110.16156006 C-271.63789886 109.7023051 -268.19984353 108.69630377 -264.6953125 107.6953125 C-263.9312912 107.48188202 -263.1672699 107.26845154 -262.38009644 107.04855347 C-259.96019405 106.37104255 -257.54263055 105.68556784 -255.125 105 C-253.51186019 104.54767236 -251.8985799 104.09584542 -250.28515625 103.64453125 C-246.5067395 102.58563599 -242.73246877 101.51290509 -238.96008301 100.43273926 C-237.20069326 99.93210703 -235.43794509 99.44331317 -233.67480469 98.95605469 C-232.76891602 98.69985352 -231.86302734 98.44365234 -230.9296875 98.1796875 C-230.17671387 97.97069824 -229.42374023 97.76170898 -228.64794922 97.54638672 C-226.78749927 96.99965678 -226.78749927 96.99965678 -226 94.875 C-223.98841321 94.70158735 -221.9767588 94.52893672 -219.96484375 94.359375 C-213.77886233 93.34875353 -207.88724347 90.97703291 -202 88.875 C-202 88.215 -202 87.555 -202 86.875 C-200.94039062 86.80796875 -199.88078125 86.7409375 -198.7890625 86.671875 C-192.63209007 85.88978039 -187.09299204 83.43787319 -181.375 81.125 C-180.15804443 80.639104 -178.94108887 80.15320801 -177.68725586 79.65258789 C-149.79646992 68.46115522 -122.47097371 56.11854578 -96 41.875 C-94.60177002 41.12645752 -94.60177002 41.12645752 -93.17529297 40.36279297 C-82.08980681 34.42603335 -71.05689385 28.40315457 -60.125 22.1875 C-59.23312988 21.68234863 -58.34125977 21.17719727 -57.42236328 20.65673828 C-56.60493652 20.18864746 -55.78750977 19.72055664 -54.9453125 19.23828125 C-53.87047607 18.62400269 -53.87047607 18.62400269 -52.77392578 17.99731445 C-50.84901596 16.87034829 -50.84901596 16.87034829 -49 14.875 C-46.95528168 13.81900098 -44.8888246 12.80491277 -42.8125 11.8125 C-36.68134528 8.83428052 -30.84931792 5.49725625 -25.0637207 1.89624023 C-16.2447943 -3.55035378 -9.36168741 -5.08209454 0 0 Z M-14.83203125 26.04296875 C-15.61940674 26.51726318 -16.40678223 26.99155762 -17.21801758 27.48022461 C-18.07419678 28.00237549 -18.93037598 28.52452637 -19.8125 29.0625 C-20.70541748 29.60205322 -21.59833496 30.14160645 -22.51831055 30.69750977 C-27.95398337 33.99120929 -33.35498623 37.3377349 -38.7434082 40.70800781 C-58.67638504 53.15688397 -79.2232969 64.38219782 -100.20178223 74.96746826 C-101.40371752 75.57406577 -102.60513171 76.18169687 -103.80603027 76.79034424 C-125.38550285 87.72352831 -147.42977029 97.17792843 -170 105.875 C-171.21155762 106.34244629 -172.42311523 106.80989258 -173.67138672 107.29150391 C-221.65370576 125.57278821 -271.66335206 137.28358054 -322 146.875 C-323.10590618 165.06582044 -323.18771386 183.23814244 -323.18530273 201.45507812 C-323.18522209 204.79335012 -323.19208239 208.13148307 -323.20581055 211.46972656 C-323.33311874 242.99996982 -322.16610436 274.32417206 -318.75 305.6875 C-318.64362213 306.68351227 -318.53724426 307.67952454 -318.42764282 308.70571899 C-309.31250274 393.59668005 -286.95367427 475.35285228 -179.484375 639.14453125 C-177.55221895 641.26808012 -175.66809443 643.41478409 -173.79370117 645.58837891 C-170.27840697 649.60928197 -166.598133 653.42208923 -162.81640625 657.19140625 C-162.15720688 657.85156235 -161.49800751 658.51171844 -160.8188324 659.19187927 C-159.43603165 660.57535506 -158.05198924 661.95759083 -156.66674805 663.33862305 C-154.56769657 665.43231669 -152.4740406 667.53129874 -150.38085938 669.63085938 C-149.02636214 670.98469571 -147.67155469 672.33822175 -146.31640625 673.69140625 C-145.70156876 674.30826797 -145.08673126 674.9251297 -144.45326233 675.5606842 C-140.12954143 679.86159287 -135.62125668 683.89750276 -131 687.875 C-129.82053154 688.90892205 -128.64197979 689.94389198 -127.46484375 690.98046875 C-107.1455898 708.77231022 -85.75940128 725.31280027 -63 739.875 C-62.20045898 740.38740234 -61.40091797 740.89980469 -60.57714844 741.42773438 C-50.10517886 748.10253741 -39.45007667 754.41490241 -28.625 760.5 C-27.57304443 761.09216309 -26.52108887 761.68432617 -25.43725586 762.29443359 C-22.63977303 763.85097536 -19.82230879 765.36416797 -17 766.875 C-16.34386719 767.26953369 -15.68773437 767.66406738 -15.01171875 768.07055664 C-12.65667751 769.3572182 -10.77806619 770.06430854 -8.12158203 769.41796875 C-5.88635113 768.44598773 -3.84689644 767.30541662 -1.75 766.0625 C-0.94062988 765.60818604 -0.13125977 765.15387207 0.70263672 764.68579102 C3.48514343 763.10976385 6.24150692 761.49265191 9 759.875 C11.12197943 758.66073036 13.2443926 757.44721847 15.3671875 756.234375 C35.42932217 744.65606734 54.5403224 731.8840789 73 717.875 C73.64493408 717.38942627 74.28986816 716.90385254 74.9543457 716.40356445 C81.58801292 711.40736615 88.02918907 706.24037359 94.33569336 700.83813477 C97.5022659 698.12769432 100.7140961 695.50146056 104 692.9375 C108.60520705 689.29233611 112.90367354 685.36630119 117.18359375 681.34985352 C119.9222102 678.78066729 122.69167967 676.27849793 125.55078125 673.84375 C131.21059021 668.91609263 136.46032291 663.56376364 141.75463867 658.25073242 C143.55862085 656.44139067 145.36788665 654.63745681 147.17773438 652.83398438 C152.99970296 647.01537156 158.67486972 641.15775715 164 634.875 C165.47534536 633.24652983 166.9539343 631.62098483 168.4375 630 C175.63487561 621.99487872 182.09473572 613.47179601 188.5625 604.875 C189.18785645 604.04436035 189.81321289 603.2137207 190.45751953 602.35791016 C216.87774978 567.06847732 238.20063933 528.57050322 255 487.875 C255.45713379 486.7701123 255.91426758 485.66522461 256.38525391 484.52685547 C281.47588012 423.17206273 293.80987362 358.78483494 300.3125 293.0625 C300.43433151 291.85229691 300.43433151 291.85229691 300.55862427 290.61764526 C302.70260791 269.06688927 303.15054969 247.52371726 303.09765625 225.87890625 C303.09578445 223.58007336 303.09436416 221.28124006 303.09336853 218.98240662 C303.08960323 213.01668133 303.07982632 207.05098153 303.06866455 201.08526611 C303.05831948 194.96374862 303.05384325 188.84222689 303.04882812 182.72070312 C303.03819682 170.7721244 303.0211952 158.82356434 303 146.875 C301.84832336 146.65360352 300.69664673 146.43220703 299.5100708 146.20410156 C295.14957016 145.36493645 290.78991725 144.52143317 286.43048096 143.67675781 C284.56001515 143.31493617 282.68933504 142.95422023 280.81842041 142.59472656 C263.39359136 139.24519234 246.17717566 135.32351042 229 130.875 C227.79585449 130.56626953 226.59170898 130.25753906 225.35107422 129.93945312 C185.51436668 119.64145467 146.57290224 105.58358823 109 88.875 C107.90300781 88.38773437 106.80601562 87.90046875 105.67578125 87.3984375 C80.27864605 76.05013575 55.86743983 63.14759465 32 48.875 C30.26578218 47.84478745 28.5314122 46.81483098 26.796875 45.78515625 C19.87858624 41.66519346 12.99032176 37.5030631 6.16015625 33.23828125 C5.19424561 32.6357251 4.22833496 32.03316895 3.2331543 31.41235352 C1.36077073 30.24145404 -0.50896804 29.06631212 -2.37573242 27.88647461 C-3.21338135 27.36190674 -4.05103027 26.83733887 -4.9140625 26.296875 C-5.6560791 25.82862305 -6.3980957 25.36037109 -7.16259766 24.87792969 C-10.41837391 23.10079325 -11.86004148 24.24376045 -14.83203125 26.04296875 Z " fill="#65F7BD" transform="translate(522,113.125)"/>
<path d="M0 0 C49.83 0 99.66 0 151 0 C152.98 5.445 152.98 5.445 155 11 C160.88698634 20.44655947 167.64118798 24.11544549 178 28 C178 76.51 178 125.02 178 175 C172.06 177.475 172.06 177.475 166 180 C159.40338036 184.73841693 155.94808433 189.44632471 153 197 C152.75894531 197.59941406 152.51789063 198.19882812 152.26953125 198.81640625 C151.83991752 201.24680382 151.83991752 201.24680382 152.8515625 204.546875 C153.88654106 209.37233962 154.28860582 213.48484901 152 218 C145.37317347 224.21729566 136.61361798 228.13540768 128.54785156 232.19238281 C123.65676304 234.68437424 118.92922964 237.42539427 114.1875 240.1875 C112.49039341 241.15376791 110.79247725 242.11861535 109.09375 243.08203125 C102.8365021 246.65122146 96.64273377 250.32605191 90.44677734 254.00024414 C83.58413906 258.06854012 76.70441441 262.10649979 69.8125 266.125 C68.80501709 266.71249023 67.79753418 267.29998047 66.75952148 267.90527344 C62.16636239 270.58110294 57.5700177 273.25114672 52.96484375 275.90625 C51.78305542 276.58820435 51.78305542 276.58820435 50.57739258 277.28393555 C49.04336595 278.16785543 47.50807348 279.04958262 45.97143555 279.92895508 C41.77620963 282.3422337 37.64695287 284.83341808 33.5546875 287.41796875 C32.6481543 287.98370605 31.74162109 288.54944336 30.80761719 289.13232422 C29.05631972 290.22919619 27.3142165 291.34092651 25.58300781 292.46923828 C19.70770788 296.13018693 19.70770788 296.13018693 16.17578125 295.48046875 C15.45777344 294.99191406 14.73976563 294.50335937 14 294 C13.33097656 293.5978125 12.66195312 293.195625 11.97265625 292.78125 C10.70101426 291.92828769 9.4301775 291.07412365 8.16015625 290.21875 C5.47410605 288.61275792 5.47410605 288.61275792 0 287 C0 250.04 0 213.08 0 175 C8.91 173.02 8.91 173.02 18 171 C35.02380943 165.15849676 47.78174697 153.78361798 56.49609375 138.09375 C64.5142764 121.59920284 65.917169 101.03737614 60.37890625 83.515625 C53.0070133 64.7204305 41.06930003 50.89469015 22.8125 41.6875 C14.67582164 38.22929194 14.67582164 38.22929194 0 36 C0 24.12 0 12.24 0 0 Z " fill="#00150F" transform="translate(517,383)"/>
<path d="M0 0 C48.84 0 97.68 0 148 0 C148 11.88 148 23.76 148 36 C142.72 37.32 137.44 38.64 132 40 C115.08746328 47.37213139 103.10753602 57.49524023 94.6875 73.9375 C94.36177002 74.56922119 94.03604004 75.20094238 93.70043945 75.85180664 C89.00299396 85.48737298 87.50681214 94.78089468 87.625 105.4375 C87.61339844 106.47970703 87.60179687 107.52191406 87.58984375 108.59570312 C87.62885372 119.08288377 89.78046665 128.74310623 94.625 138.0625 C94.97344971 138.73804932 95.32189941 139.41359863 95.6809082 140.10961914 C103.81486148 155.35059372 116.02534164 164.85590063 132 171 C137.28 172.32 142.56 173.64 148 175 C148 211.96 148 248.92 148 287 C144.7 288.32 141.4 289.64 138 291 C136.906875 291.928125 135.81375 292.85625 134.6875 293.8125 C132 296 132 296 129.58984375 295.77832031 C127.04983455 295.01497667 125.13088892 294.11428424 122.875 292.734375 C122.09745361 292.26346436 121.31990723 291.79255371 120.51879883 291.30737305 C119.68759521 290.79343994 118.8563916 290.27950684 118 289.75 C117.11916748 289.2135083 116.23833496 288.6770166 115.33081055 288.12426758 C108.2632309 283.80960754 101.231557 279.43573141 94.19995117 275.06274414 C87.44433255 270.86945237 80.63804059 266.76580703 73.8125 262.6875 C64.07960427 256.87180368 54.4100077 250.96054505 44.76464844 245.00097656 C36.06652261 239.6351644 27.31571527 234.36123804 18.53320312 229.13476562 C16.6268521 227.99762147 14.72583092 226.85148434 12.83081055 225.69555664 C10.86246191 224.51658456 8.86632765 223.38328716 6.85083008 222.28686523 C4.01690861 220.67536625 1.46123206 219.13840002 -1 217 C-1.82557213 213.61135456 -1.95568648 212.40415234 -1.4375 209.1875 C-0.87729467 202.13378413 -1.44035913 197.18487601 -5 191 C-5.4125 190.28328125 -5.825 189.5665625 -6.25 188.828125 C-11.28021982 181.22563369 -18.55291223 177.81569592 -27 175 C-27 126.49 -27 77.98 -27 28 C-23.04 26.35 -19.08 24.7 -15 23 C-6.22941144 16.73529388 -3.41084621 10.23253862 0 0 Z " fill="#00140E" transform="translate(356,383)"/>
<path d="M0 0 C7.58925326 4.02888557 14.92754162 8.34456461 22.1875 12.9375 C24.30593578 14.26961682 26.42442693 15.60164559 28.54296875 16.93359375 C29.61466309 17.60890137 30.68635742 18.28420898 31.79052734 18.97998047 C36.85247443 22.16593438 41.92651802 25.33246011 47 28.5 C52.97856838 32.23508543 58.95612085 35.97176317 64.9296875 39.71484375 C76.454504 46.93289364 88.01162199 54.09499726 99.6027832 61.20605469 C107.03708319 65.7732168 114.43307852 70.39627676 121.77661133 75.1081543 C126.74458132 78.27724722 131.82044975 81.19053451 137 84 C137 84.66 137 85.32 137 86 C87.17 86 37.34 86 -14 86 C-14 59.6 -14 33.2 -14 6 C-10.37 4.68 -6.74 3.36 -3 2 C-2.01 1.34 -1.02 0.68 0 0 Z " fill="#00140E" transform="translate(531,284)"/>
<path d="M0 0 C1.010625 0.474375 2.02125 0.94875 3.0625 1.4375 C5.7025 2.4275 8.3425 3.4175 11.0625 4.4375 C11.0625 30.8375 11.0625 57.2375 11.0625 84.4375 C-37.7775 84.4375 -86.6175 84.4375 -136.9375 84.4375 C-136.9375 83.7775 -136.9375 83.1175 -136.9375 82.4375 C-134.96436006 81.11258712 -132.99953476 79.92426976 -130.9375 78.75 C-129.54944465 77.93847978 -128.16282366 77.12450314 -126.77734375 76.30859375 C-126.00632324 75.85468262 -125.23530273 75.40077148 -124.44091797 74.93310547 C-119.74996289 72.13060978 -115.12851039 69.21655324 -110.5 66.3125 C-109.47712891 65.67159424 -108.45425781 65.03068848 -107.40039062 64.37036133 C-105.29417444 63.05038087 -103.18821943 61.72998359 -101.08251953 60.40917969 C-96.03763013 57.24643114 -90.98740017 54.09223934 -85.9375 50.9375 C-79.90135173 47.16564633 -73.86573511 43.39295043 -67.83203125 39.6171875 C-57.42133479 33.10393559 -46.99873003 26.6112763 -36.54956055 20.15991211 C-29.74768612 15.95432235 -22.98235098 11.69261436 -16.23901367 7.39379883 C-14.14536473 6.06363124 -12.04461193 4.74621905 -9.9375 3.4375 C-8.95366333 2.82080444 -8.95366333 2.82080444 -7.94995117 2.19165039 C-3.28406035 -0.62886262 -3.28406035 -0.62886262 0 0 Z " fill="#00140E" transform="translate(492.9375,285.5625)"/>
<path d="M0 0 C6.14444923 4.91323634 10.04212689 10.85023403 11.1328125 18.70703125 C11.48016697 28.23126665 9.54074941 35.78580866 3.06640625 42.90234375 C-4.11234519 49.43328889 -11.60884331 51.25519559 -21.19921875 50.90625 C-29.31006379 49.91786813 -36.02896975 45.71272717 -41.30859375 39.52734375 C-45.95508033 32.21076348 -46.40319862 23.96451937 -45.30859375 15.52734375 C-42.92459459 7.45250789 -37.72834872 1.55570168 -30.4140625 -2.53125 C-19.96695355 -7.28821246 -9.6152283 -6.13357203 0 0 Z " fill="#00140D" transform="translate(529.30859375,464.47265625)"/>
<path d="M0 0 C49.83 0 99.66 0 151 0 C151.99 4.95 151.99 4.95 153 10 C152.01 9.505 152.01 9.505 151 9 C150.67 6.69 150.34 4.38 150 2 C101.16 2 52.32 2 2 2 C2 12.56 2 23.12 2 34 C4.97 34.33 7.94 34.66 11 35 C11.33 35.66 11.66 36.32 12 37 C8.04 36.67 4.08 36.34 0 36 C0 24.12 0 12.24 0 0 Z " fill="#000200" transform="translate(517,383)"/>
<path d="M0 0 C48.84 0 97.68 0 148 0 C148 11.88 148 23.76 148 36 C144.37 36.33 140.74 36.66 137 37 C139 35 139 35 146 33 C146 22.77 146 12.54 146 2 C98.15 2 50.3 2 1 2 C1 2.99 1 3.98 1 5 C0.34 5 -0.32 5 -1 5 C-0.67 3.35 -0.34 1.7 0 0 Z " fill="#000200" transform="translate(356,383)"/>
<path d="M0 0 C2.31 0 4.62 0 7 0 C4 2 4 2 2 2 C2.33 38.3 2.66 74.6 3 112 C2.01 112 1.02 112 0 112 C0 75.04 0 38.08 0 0 Z " fill="#000300" transform="translate(517,558)"/>
<path d="M0 0 C4.18001995 -0.08196118 7.92212105 0.10554296 12 1 C12.02318114 14.43901739 12.04094455 27.87803001 12.05181217 41.31706333 C12.05702835 47.55749277 12.06410307 53.79790852 12.07543945 60.03833008 C12.08631322 66.06186495 12.09228638 72.08538666 12.09487724 78.10893059 C12.09672339 80.40579371 12.10032842 82.70265612 12.10573006 84.99951363 C12.11300002 88.21917395 12.11398842 91.43878004 12.11352539 94.65844727 C12.1189183 96.07941208 12.1189183 96.07941208 12.12442017 97.52908325 C12.11675383 102.46291526 11.84012953 107.13610178 11 112 C10.67 112 10.34 112 10 112 C10.00222061 111.01790558 10.00444122 110.03581116 10.00672913 109.0239563 C10.02724478 99.6431578 10.04210619 90.262364 10.05181217 80.88154793 C10.05697025 76.06197276 10.06393444 71.24241609 10.07543945 66.42285156 C10.12468332 45.25599365 10.09768563 24.14437054 9 3 C4.545 2.01 4.545 2.01 0 1 C0 0.67 0 0.34 0 0 Z " fill="#010703" transform="translate(813,259)"/>
<path d="M0 0 C0 3 0 3 -2.55102539 5.87573242 C-3.72577008 7.04320498 -4.9086035 8.20257204 -6.09765625 9.35546875 C-6.72473984 9.97593582 -7.35182343 10.59640289 -7.99790955 11.235672 C-10.01249508 13.22680689 -12.03689762 15.20757886 -14.0625 17.1875 C-16.70297334 19.78136361 -19.33900003 22.37968486 -21.97265625 24.98046875 C-22.60354156 25.60194794 -23.23442688 26.22342712 -23.88442993 26.86373901 C-27.64439798 30.58806045 -31.2537198 34.37364636 -34.60327148 38.4777832 C-36.78426777 40.85472986 -39.16513728 42.59521807 -42.0625 44 C-44.132649 45.068464 -45.44143253 46.28557579 -47 48 C-47.66 47.67 -48.32 47.34 -49 47 C-46.50217427 44.64351776 -44.00133185 42.29025984 -41.5 39.9375 C-40.80390625 39.28072266 -40.1078125 38.62394531 -39.390625 37.94726562 C-36.07544663 34.83161188 -32.74437776 31.76316125 -29.28125 28.8125 C-23.21888727 23.54974201 -17.65187072 17.7570051 -12 12.0625 C-10.83226626 10.88973991 -9.66429926 9.71721202 -8.49609375 8.54492188 C-5.66136766 5.69928311 -2.82981176 2.85052547 0 0 Z " fill="#96FBEF" transform="translate(677,757)"/>
<path d="M0 0 C0.33 0 0.66 0 1 0 C1.33 2.64 1.66 5.28 2 8 C2.33 8 2.66 8 3 8 C3 30.44 3 52.88 3 76 C2.67 76 2.34 76 2 76 C1.67 62.47 1.34 48.94 1 35 C0.67 35 0.34 35 0 35 C0 23.45 0 11.9 0 0 Z " fill="#0A2E1F" transform="translate(199,282)"/>
<path d="M0 0 C0.99 0.66 1.98 1.32 3 2 C1.57084149 3.34227046 0.13137328 4.67357096 -1.3125 6 C-2.11300781 6.7425 -2.91351563 7.485 -3.73828125 8.25 C-6 10 -6 10 -9 10 C-10.58528554 13.7150822 -11.6763188 17.3884096 -12.625 21.3125 C-12.88539063 22.38113281 -13.14578125 23.44976562 -13.4140625 24.55078125 C-13.70410156 25.76314453 -13.70410156 25.76314453 -14 27 C-14.33 27 -14.66 27 -15 27 C-15.6630655 19.83889257 -13.91926907 15.01084907 -10 9 C-6.99542473 5.43001232 -3.88051806 2.58701204 0 0 Z " fill="#82F2D8" transform="translate(494,229)"/>
<path d="M0 0 C0.66 0 1.32 0 2 0 C0.39626852 4.00517396 -2.42113986 6.6771098 -5.4453125 9.640625 C-5.97518768 10.16767029 -6.50506287 10.69471558 -7.05099487 11.23773193 C-8.73767825 12.91325675 -10.43119564 14.58167722 -12.125 16.25 C-13.27259388 17.38755851 -14.41973461 18.52557436 -15.56640625 19.6640625 C-18.37238137 22.44803465 -21.18450464 25.2256576 -24 28 C-24.66 27.67 -25.32 27.34 -26 27 C-25.3387915 26.34402832 -24.67758301 25.68805664 -23.99633789 25.01220703 C-21.54739147 22.58028964 -19.10070247 20.14614635 -16.65551758 17.71044922 C-15.59619526 16.6561597 -14.53597771 15.60276891 -13.47485352 14.55029297 C-11.95093039 13.03848143 -10.43024216 11.52348098 -8.91015625 10.0078125 C-7.99371338 9.09660645 -7.07727051 8.18540039 -6.13305664 7.24658203 C-3.97429864 5.19154633 -3.97429864 5.19154633 -3 3 C-2.34 3 -1.68 3 -1 3 C-0.67 2.01 -0.34 1.02 0 0 Z " fill="#000301" transform="translate(674,757)"/>
<path d="M0 0 C0.66 0.99 1.32 1.98 2 3 C0.75965588 4.32162881 -0.49268626 5.63200453 -1.75 6.9375 C-2.44609375 7.66839844 -3.1421875 8.39929688 -3.859375 9.15234375 C-6.06118871 11.05281434 -7.22602605 11.44520521 -10 12 C-12.22977996 13.97901574 -12.22977996 13.97901574 -14 16 C-14.66 15.67 -15.32 15.34 -16 15 C-10.72 10.05 -5.44 5.1 0 0 Z " fill="#81F5D6" transform="translate(644,789)"/>
<path d="M0 0 C1.03125 0.61875 2.0625 1.2375 3.125 1.875 C9.08902962 5.24024563 13.1303679 6.37392642 20 5 C17.22719294 8.08089673 14.93673644 9.68775452 11 11 C10.45730469 10.51789063 9.91460937 10.03578125 9.35546875 9.5390625 C8.64003906 8.90742188 7.92460937 8.27578125 7.1875 7.625 C6.47980469 6.99851562 5.77210938 6.37203125 5.04296875 5.7265625 C2.91196181 3.859401 2.91196181 3.859401 0 2 C0 1.34 0 0.68 0 0 Z " fill="#000903" transform="translate(338,346)"/>
<path d="M0 0 C0 0.99 0 1.98 0 3 C-6.16412172 8.06827786 -14.08139478 13.4422416 -22 15 C-18.27441084 10.70124328 -13.58015189 8.1254498 -8.75 5.25 C-7.90953125 4.74339844 -7.0690625 4.23679687 -6.203125 3.71484375 C-4.13846707 2.47135659 -2.07075867 1.23329143 0 0 Z " fill="#020B06" transform="translate(424,326)"/>
<path d="M0 0 C0.66 0.33 1.32 0.66 2 1 C0.02 1.99 0.02 1.99 -2 3 C-2 4.32 -2 5.64 -2 7 C-3.1446875 6.9690625 -3.1446875 6.9690625 -4.3125 6.9375 C-7.10185786 6.87057159 -7.10185786 6.87057159 -10 8 C-10.33 8.66 -10.66 9.32 -11 10 C-13.0625 10.625 -13.0625 10.625 -15 11 C-15 10.34 -15 9.68 -15 9 C-12.56943154 7.33526758 -10.15685489 5.80712601 -7.625 4.3125 C-6.92632812 3.88388672 -6.22765625 3.45527344 -5.5078125 3.01367188 C-3.71097069 1.94074999 -1.85830122 0.96255827 0 0 Z " fill="#020B06" transform="translate(498,145)"/>
<path d="M0 0 C0.33 0.99 0.66 1.98 1 3 C-0.53379812 4.44589269 -2.07743855 5.88134804 -3.625 7.3125 C-4.48351562 8.11300781 -5.34203125 8.91351562 -6.2265625 9.73828125 C-9.388069 12.31646753 -12.77329146 15 -17 15 C-17 14.34 -17 13.68 -17 13 C-14.98828125 11.703125 -14.98828125 11.703125 -12.3125 10.25 C-7.77129956 7.63575873 -5.10272891 5.16929197 -2 1 C-1.34 0.67 -0.68 0.34 0 0 Z " fill="#010A05" transform="translate(729,609)"/>
<path d="M0 0 C0.99 0.33 1.98 0.66 3 1 C3.45510807 7.67491831 1.7672426 13.59374557 0 20 C-0.33 20 -0.66 20 -1 20 C-0.67 16.37 -0.34 12.74 0 9 C-0.33 9 -0.66 9 -1 9 C-0.67 6.03 -0.34 3.06 0 0 Z " fill="#000803" transform="translate(809,474)"/>
<path d="M0 0 C3.10115358 3.00202995 5.88584478 6.16537625 8.625 9.5 C9.40101563 10.4384375 10.17703125 11.376875 10.9765625 12.34375 C12.64634321 14.53574011 13.89949417 16.49132003 15 19 C9.16009705 14.3767435 4.13190031 9.23541319 0 3 C0 2.01 0 1.02 0 0 Z " fill="#030C07" transform="translate(324,728)"/>
<path d="M0 0 C0.66 0.33 1.32 0.66 2 1 C1.34 9.58 0.68 18.16 0 27 C-0.33 27 -0.66 27 -1 27 C-1.19436491 24.54203147 -1.3807742 22.08390706 -1.5625 19.625 C-1.61857422 18.92632812 -1.67464844 18.22765625 -1.73242188 17.5078125 C-2.11328125 12.2265625 -2.11328125 12.2265625 -1 10 C-0.77377919 8.29636178 -0.59111527 6.58671299 -0.4375 4.875 C-0.35371094 3.96492188 -0.26992188 3.05484375 -0.18359375 2.1171875 C-0.12300781 1.41851562 -0.06242188 0.71984375 0 0 Z " fill="#61F0B4" transform="translate(847,384)"/>
<path d="M0 0 C8.29557851 3.68463661 12.9088637 8.5814871 18 16 C17.67 16.66 17.34 17.32 17 18 C16.5875 17.41992188 16.175 16.83984375 15.75 16.2421875 C11.34497367 10.28360278 6.70082567 5.35041284 0 2 C0 1.34 0 0.68 0 0 Z " fill="#000502" transform="translate(524,226)"/>
<path d="M0 0 C7.13602466 3.32598086 11.72291231 8.51956411 16 15 C15.67 15.66 15.34 16.32 15 17 C13.06015834 14.91880554 11.12307706 12.83515453 9.1875 10.75 C8.64029297 10.16347656 8.09308594 9.57695312 7.52929688 8.97265625 C4.85219687 6.08463321 2.27491168 3.22478709 0 0 Z " fill="#020A05" transform="translate(554,432)"/>
<path d="M0 0 C2.9719385 1.12451727 5.33440687 2.22293791 8 4 C8.66 4 9.32 4 10 4 C10.3403125 4.8353125 10.3403125 4.8353125 10.6875 5.6875 C12.35896766 8.63246684 14.55276352 10.68156544 17 13 C12.48240045 11.5332469 9.23877673 8.98823226 5.6875 5.9375 C5.13771484 5.47794922 4.58792969 5.01839844 4.02148438 4.54492188 C2.65722044 3.39080543 1.32538998 2.1985584 0 1 C0 0.67 0 0.34 0 0 Z " fill="#030C07" transform="translate(414,819)"/>
<path d="M0 0 C2.75942175 2.69557909 2.99899659 3.94740016 3.07421875 7.890625 C2.96182592 9.34512042 2.83240522 10.79838312 2.6875 12.25 C2.62626953 12.99507813 2.56503906 13.74015625 2.50195312 14.5078125 C2.3492857 16.33982155 2.17660246 18.17014316 2 20 C-0.56780471 16.1584024 -0.22688882 12.1860825 -0.125 7.75 C-0.11597656 7.00492187 -0.10695312 6.25984375 -0.09765625 5.4921875 C-0.07418358 3.66131941 -0.03831525 1.83061762 0 0 Z " fill="#071D13" transform="translate(200,260)"/>
<path d="M0 0 C3.12961734 1.35280233 4.85505395 2.75512489 6.9375 5.4375 C9.34988029 8.39619541 11.64824594 10.12696096 15 12 C15 12.66 15 13.32 15 14 C9.68701245 12.71410301 7.44400712 10.72315398 4.125 6.4375 C3.34382812 5.44621094 2.56265625 4.45492188 1.7578125 3.43359375 C0 1 0 1 0 0 Z " fill="#030E07" transform="translate(670,395)"/>
<path d="M0 0 C1.27679803 2.55359605 0.69660895 3.2909652 0 6 C-0.03786901 7.66623639 -0.04627845 9.33397597 0 11 C-1.98 11 -3.96 11 -6 11 C-5.18993474 9.35296694 -4.3768779 7.70740494 -3.5625 6.0625 C-3.11003906 5.14597656 -2.65757812 4.22945312 -2.19140625 3.28515625 C-1 1 -1 1 0 0 Z " fill="#020E07" transform="translate(576,517)"/>
<path d="M0 0 C1.34155445 4.02466335 0.22380042 5.72149865 -1.3125 9.625 C-1.76238281 10.79289063 -2.21226562 11.96078125 -2.67578125 13.1640625 C-4 16 -4 16 -6 17 C-5.67 13.7 -5.34 10.4 -5 7 C-4.34 7 -3.68 7 -3 7 C-2.01 4.69 -1.02 2.38 0 0 Z " fill="#010903" transform="translate(781,585)"/>
<path d="M0 0 C1.65 0 3.3 0 5 0 C5.33 0.99 5.66 1.98 6 3 C4.71475739 3.86380259 3.42157581 4.71580369 2.125 5.5625 C1.40570313 6.03816406 0.68640625 6.51382812 -0.0546875 7.00390625 C-0.69664062 7.33261719 -1.33859375 7.66132813 -2 8 C-2.66 7.67 -3.32 7.34 -4 7 C-2.68 6.34 -1.36 5.68 0 5 C0 3.35 0 1.7 0 0 Z " fill="#010B05" transform="translate(476,272)"/>
<path d="M0 0 C0.58007812 0.40992188 1.16015625 0.81984375 1.7578125 1.2421875 C6.06084535 4.21028607 9.8686189 6.68426126 15 8 C15 8.66 15 9.32 15 10 C14.01 10.33 13.02 10.66 12 11 C9.79256409 9.63771358 7.84243112 8.27749316 5.8125 6.6875 C4.97428711 6.06198242 4.97428711 6.06198242 4.11914062 5.42382812 C2.70145825 4.33849619 1.34509484 3.17409054 0 2 C0 1.34 0 0.68 0 0 Z " fill="#020D06" transform="translate(432,832)"/>
<path d="M0 0 C0.66 0 1.32 0 2 0 C0.4838612 4.54841641 -3.02158328 6.51722867 -7 9 C-10 9.875 -10 9.875 -12 10 C-12 9.34 -12 8.68 -12 8 C-9.8828125 6.5625 -9.8828125 6.5625 -7.125 5 C-3.31116621 2.83255811 -3.31116621 2.83255811 0 0 Z " fill="#020B06" transform="translate(534,726)"/>
<path d="M0 0 C-0.33 0.99 -0.66 1.98 -1 3 C-2.11375 3.12375 -3.2275 3.2475 -4.375 3.375 C-8.03103677 3.6465813 -8.03103677 3.6465813 -10 6 C-10.99 5.67 -11.98 5.34 -13 5 C-4.9 -1.75 -4.9 -1.75 0 0 Z " fill="#000B05" transform="translate(457,173)"/>
<path d="M0 0 C1.984375 1.11328125 1.984375 1.11328125 4 3 C4.390625 5.91796875 4.390625 5.91796875 4.25 9.1875 C4.21390625 10.27417969 4.1778125 11.36085938 4.140625 12.48046875 C4.09421875 13.31191406 4.0478125 14.14335938 4 15 C0.59141414 11.59141414 0.06991606 6.67798535 -0.125 2 C-0.08375 1.34 -0.0425 0.68 0 0 Z " fill="#010903" transform="translate(220,514)"/>
<path d="M0 0 C4.95 0 9.9 0 15 0 C15.33 0.99 15.66 1.98 16 3 C13.89521396 2.88590318 11.79115423 2.75834639 9.6875 2.625 C8.51574219 2.55539062 7.34398437 2.48578125 6.13671875 2.4140625 C3 2 3 2 0 0 Z " fill="#87F6D9" transform="translate(806,256)"/>
<path d="M0 0 C1.79093191 -0.08086147 3.58289628 -0.13912702 5.375 -0.1875 C6.87160156 -0.23970703 6.87160156 -0.23970703 8.3984375 -0.29296875 C9.25695312 -0.19628906 10.11546875 -0.09960938 11 0 C11.66 0.99 12.32 1.98 13 3 C11.39667209 3.08121924 9.79215974 3.13929134 8.1875 3.1875 C7.29417969 3.22230469 6.40085937 3.25710938 5.48046875 3.29296875 C2.58352485 2.95081002 1.77444972 2.24606427 0 0 Z " fill="#041C14" transform="translate(502,736)"/>
<path d="M0 0 C-1.65 0.33 -3.3 0.66 -5 1 C-5 1.66 -5 2.32 -5 3 C-6.98 3 -8.96 3 -11 3 C-11.33 2.34 -11.66 1.68 -12 1 C-3.96428571 -1.27678571 -3.96428571 -1.27678571 0 0 Z " fill="#071A12" transform="translate(269,247)"/>
<path d="M0 0 C4.10958767 1.45044271 7.43258745 3.51110752 11 6 C10.01 6.495 10.01 6.495 9 7 C7.824375 6.2884375 7.824375 6.2884375 6.625 5.5625 C3.93627764 3.65901076 3.93627764 3.65901076 0 4 C0 2.68 0 1.36 0 0 Z " fill="#8CF1DC" transform="translate(454,850)"/>
<path d="M0 0 C0 3 0 3 -1 6 C-2.32 6 -3.64 6 -5 6 C-4.75 4.125 -4.75 4.125 -4 2 C-1.9375 0.75 -1.9375 0.75 0 0 Z " fill="#000C04" transform="translate(665,618)"/>
<path d="M0 0 C1.65 0 3.3 0 5 0 C4 3 4 3 0.9375 4.6875 C-0.031875 5.120625 -1.00125 5.55375 -2 6 C-1.34 4.02 -0.68 2.04 0 0 Z " fill="#010E06" transform="translate(648,608)"/>
<path d="M0 0 C-0.33 1.65 -0.66 3.3 -1 5 C-2.65 5 -4.3 5 -6 5 C-5.34 4.34 -4.68 3.68 -4 3 C-4.66 2.34 -5.32 1.68 -6 1 C-4 0 -4 0 0 0 Z " fill="#010C05" transform="translate(281,243)"/>
<path d="M0 0 C2.475 0.495 2.475 0.495 5 1 C4.67 3.31 4.34 5.62 4 8 C3.34 7.67 2.68 7.34 2 7 C1.61781233 5.34385343 1.28604898 3.67542976 1 2 C0.67 1.34 0.34 0.68 0 0 Z " fill="#0A1C14" transform="translate(475,689)"/>
<path d="M0 0 C0.33 0.99 0.66 1.98 1 3 C-1.875 3.625 -1.875 3.625 -5 4 C-5.66 3.34 -6.32 2.68 -7 2 C-4.35261084 0.5393715 -3.10551666 0 0 0 Z " fill="#6AF0C0" transform="translate(620,192)"/>
<path d="M0 0 C1.31571603 0.2547514 2.62760376 0.52934141 3.9375 0.8125 C4.66839844 0.96332031 5.39929688 1.11414063 6.15234375 1.26953125 C6.76207031 1.51058594 7.37179687 1.75164062 8 2 C8.33 2.99 8.66 3.98 9 5 C5.51694958 4.35499066 2.93797836 2.95865224 0 1 C0 0.67 0 0.34 0 0 Z " fill="#85F2D9" transform="translate(556,163)"/>
<path d="M0 0 C3.91211733 1.15585285 6.8745041 2.35534962 10 5 C8.68 5.33 7.36 5.66 6 6 C5.67 5.01 5.34 4.02 5 3 C2.49552484 1.78130071 2.49552484 1.78130071 0 1 C0 0.67 0 0.34 0 0 Z " fill="#93FBE6" transform="translate(499,877)"/>
<path d="M0 0 C3.96 1.98 3.96 1.98 8 4 C8 4.33 8 4.66 8 5 C6.35 5 4.7 5 3 5 C3 4.34 3 3.68 3 3 C2.01 2.67 1.02 2.34 0 2 C0 1.34 0 0.68 0 0 Z " fill="#000703" transform="translate(492,731)"/>
<path d="M0 0 C0.99 0.33 1.98 0.66 3 1 C3 1.99 3 2.98 3 4 C1.02 4 -0.96 4 -3 4 C-2.01 2.68 -1.02 1.36 0 0 Z " fill="#000702" transform="translate(349,612)"/>
<path d="M0 0 C0.66 0 1.32 0 2 0 C2 1.65 2 3.3 2 5 C0 1.125 0 1.125 0 0 Z " fill="#61E8AB" transform="translate(185,485)"/>
<path d="M0 0 C0.66 0 1.32 0 2 0 C2 1.65 2 3.3 2 5 C0 1.125 0 1.125 0 0 Z " fill="#61EBAD" transform="translate(177,432)"/>
<path d="M0 0 C0.66 1.32 1.32 2.64 2 4 C1.34 3.67 0.68 3.34 0 3 C0 2.01 0 1.02 0 0 Z " fill="#60E7A9" transform="translate(201,551)"/>
<path d="M0 0 C0.33 0 0.66 0 1 0 C1 1.65 1 3.3 1 5 C0.67 5 0.34 5 0 5 C0 3.35 0 1.7 0 0 Z " fill="#61E6AB" transform="translate(851,283)"/>
<path d="M0 0 C1.65 0 3.3 0 5 0 C5 0.33 5 0.66 5 1 C3.35 1 1.7 1 0 1 C0 0.67 0 0.34 0 0 Z " fill="#61EBAD" transform="translate(725,208)"/>
<path d="M0 0 C0.66 0 1.32 0 2 0 C1.67 0.99 1.34 1.98 1 3 C0.67 2.01 0.34 1.02 0 0 Z " fill="#5FEAAA" transform="translate(217,599)"/>
<path d="M0 0 C0 3 0 3 0 3 Z " fill="#60EAAC" transform="translate(193,519)"/>
<path d="M0 0 C1 4 1 4 1 4 Z " fill="#62E8AA" transform="translate(173,268)"/>
<path d="M0 0 C4 1 4 1 4 1 Z " fill="#60E6AB" transform="translate(823,232)"/>
<path d="M0 0 C0.99 0.33 1.98 0.66 3 1 C2.01 1 1.02 1 0 1 C0 0.67 0 0.34 0 0 Z " fill="#60E7AA" transform="translate(222,226)"/>
<path d="M0 0 C3 1 3 1 3 1 Z " fill="#5DE0A6" transform="translate(512,909)"/>
<path d="M0 0 C3 1 3 1 3 1 Z " fill="#61E8A9" transform="translate(330,779)"/>
<path d="" fill="#62EBAC" transform="translate(0,0)"/>
<path d="" fill="#61E7AA" transform="translate(0,0)"/>
<path d="" fill="#5EE8AC" transform="translate(0,0)"/>
<path d="" fill="#64EDB0" transform="translate(0,0)"/>
<path d="" fill="#64EAAD" transform="translate(0,0)"/>
<path d="" fill="#62E5AB" transform="translate(0,0)"/>
<path d="M0 0 C3 1 3 1 3 1 Z " fill="#61E9B0" transform="translate(200,232)"/>
<path d="M0 0 C3 1 3 1 3 1 Z " fill="#5FE8AB" transform="translate(790,225)"/>
<path d="M0 0 C0.33 0.66 0.66 1.32 1 2 C0.34 1.67 -0.32 1.34 -1 1 C-0.67 0.67 -0.34 0.34 0 0 Z " fill="#61EAAE" transform="translate(441,144)"/>
<path d="M0 0 C2 1 2 1 2 1 Z " fill="#5FE9AB" transform="translate(491,902)"/>
<path d="M0 0 C2 1 2 1 2 1 Z " fill="#5FE7A6" transform="translate(416,855)"/>
<path d="M0 0 C2 1 2 1 2 1 Z " fill="#60E9AC" transform="translate(400,843)"/>
<path d="" fill="#60E5A8" transform="translate(0,0)"/>
<path d="M0 0 C2 1 2 1 2 1 Z " fill="#60E8A9" transform="translate(304,749)"/>
<path d="M0 0 C2 1 2 1 2 1 Z " fill="#5FE8A8" transform="translate(293,735)"/>
<path d="" fill="#60EAA9" transform="translate(0,0)"/>
<path d="" fill="#60E6AA" transform="translate(0,0)"/>
<path d="" fill="#61E5A9" transform="translate(0,0)"/>
<path d="" fill="#63E9AB" transform="translate(0,0)"/>
<path d="" fill="#62EAAB" transform="translate(0,0)"/>
<path d="" fill="#5FE8AA" transform="translate(0,0)"/>
<path d="" fill="#5FE8AC" transform="translate(0,0)"/>
<path d="" fill="#60E5AA" transform="translate(0,0)"/>
<path d="" fill="#62EBAE" transform="translate(0,0)"/>
<path d="" fill="#62E8AC" transform="translate(0,0)"/>
<path d="" fill="#63E8AC" transform="translate(0,0)"/>
<path d="" fill="#5FE9AE" transform="translate(0,0)"/>
<path d="" fill="#62E6A9" transform="translate(0,0)"/>
<path d="" fill="#65ECAE" transform="translate(0,0)"/>
<path d="" fill="#62E9AC" transform="translate(0,0)"/>
<path d="" fill="#63EAB0" transform="translate(0,0)"/>
<path d="" fill="#64EAAE" transform="translate(0,0)"/>
<path d="M0 0 C2 1 2 1 2 1 Z " fill="#5FE2A8" transform="translate(833,234)"/>
<path d="M0 0 C2 1 2 1 2 1 Z " fill="#5EE5A9" transform="translate(829,233)"/>
<path d="M0 0 C2 1 2 1 2 1 Z " fill="#62E9AC" transform="translate(219,228)"/>
<path d="M0 0 C2 1 2 1 2 1 Z " fill="#62ECAD" transform="translate(261,218)"/>
<path d="M0 0 C2 1 2 1 2 1 Z " fill="#61E9AF" transform="translate(758,217)"/>
<path d="M0 0 C2 1 2 1 2 1 Z " fill="#62E9AE" transform="translate(755,216)"/>
<path d="M0 0 C2 1 2 1 2 1 Z " fill="#60EBAD" transform="translate(710,203)"/>
<path d="M0 0 C2 1 2 1 2 1 Z " fill="#61ECAE" transform="translate(702,200)"/>
<path d="M0 0 C2 1 2 1 2 1 Z " fill="#61ECAC" transform="translate(339,193)"/>
<path d="M0 0 C2 1 2 1 2 1 Z " fill="#5FE7AC" transform="translate(679,192)"/>
<path d="M0 0 C2 1 2 1 2 1 Z " fill="#61ECB0" transform="translate(361,184)"/>
<path d="M0 0 C2 1 2 1 2 1 Z " fill="#62EAAF" transform="translate(375,178)"/>
<path d="M0 0 C2 1 2 1 2 1 Z " fill="#62EBAE" transform="translate(644,177)"/>
<path d="" fill="#61E8AD" transform="translate(0,0)"/>
<path d="M0 0 C2 1 2 1 2 1 Z " fill="#62EAAC" transform="translate(578,144)"/>
<path d="M0 0 C2 1 2 1 2 1 Z " fill="#5FEAAB" transform="translate(564,136)"/>
<path d="M0 0 C2 1 2 1 2 1 Z " fill="#63E7AD" transform="translate(456,136)"/>
<path d="" fill="#61EAAC" transform="translate(0,0)"/>
<path d="" fill="#62E6AC" transform="translate(0,0)"/>
<path d="" fill="#60E8A6" transform="translate(0,0)"/>
<path d="" fill="#62E9AA" transform="translate(0,0)"/>
<path d="" fill="#62E7AF" transform="translate(0,0)"/>
<path d="" fill="#60EAAD" transform="translate(0,0)"/>
<path d="" fill="#63E8A6" transform="translate(0,0)"/>
<path d="" fill="#64EAA8" transform="translate(0,0)"/>
<path d="" fill="#63E9AB" transform="translate(0,0)"/>
<path d="" fill="#61EAAC" transform="translate(0,0)"/>
<path d="" fill="#62E9AA" transform="translate(0,0)"/>
<path d="" fill="#62E8A9" transform="translate(0,0)"/>
<path d="" fill="#62E6A7" transform="translate(0,0)"/>
<path d="" fill="#62E9AD" transform="translate(0,0)"/>
<path d="" fill="#61E6AC" transform="translate(0,0)"/>
<path d="" fill="#61E5A9" transform="translate(0,0)"/>
<path d="" fill="#62E5AA" transform="translate(0,0)"/>
<path d="" fill="#64EAAA" transform="translate(0,0)"/>
<path d="" fill="#61E8AA" transform="translate(0,0)"/>
<path d="" fill="#62E9A9" transform="translate(0,0)"/>
<path d="" fill="#62EBA9" transform="translate(0,0)"/>
<path d="" fill="#5FE7AA" transform="translate(0,0)"/>
<path d="" fill="#60EAA8" transform="translate(0,0)"/>
<path d="" fill="#5FEDAC" transform="translate(0,0)"/>
<path d="" fill="#62E5A8" transform="translate(0,0)"/>
<path d="" fill="#62E6A8" transform="translate(0,0)"/>
<path d="" fill="#5FE4AA" transform="translate(0,0)"/>
<path d="" fill="#5FE3A7" transform="translate(0,0)"/>
<path d="" fill="#62E7AD" transform="translate(0,0)"/>
<path d="" fill="#62E6A7" transform="translate(0,0)"/>
<path d="" fill="#62E7AC" transform="translate(0,0)"/>
<path d="" fill="#63E6AA" transform="translate(0,0)"/>
<path d="" fill="#61E8A9" transform="translate(0,0)"/>
<path d="" fill="#61E1A9" transform="translate(0,0)"/>
<path d="" fill="#64EBAB" transform="translate(0,0)"/>
<path d="" fill="#63E7AC" transform="translate(0,0)"/>
<path d="" fill="#62E5A9" transform="translate(0,0)"/>
<path d="" fill="#61E6A7" transform="translate(0,0)"/>
<path d="" fill="#60E3A4" transform="translate(0,0)"/>
<path d="" fill="#64E9AA" transform="translate(0,0)"/>
<path d="" fill="#62E7AB" transform="translate(0,0)"/>
<path d="" fill="#61E7A9" transform="translate(0,0)"/>
<path d="" fill="#60E4A7" transform="translate(0,0)"/>
<path d="" fill="#64EAA9" transform="translate(0,0)"/>
<path d="" fill="#60EAAB" transform="translate(0,0)"/>
<path d="" fill="#60E4A5" transform="translate(0,0)"/>
<path d="" fill="#61E7AB" transform="translate(0,0)"/>
<path d="" fill="#5DE5A9" transform="translate(0,0)"/>
<path d="" fill="#63E7AB" transform="translate(0,0)"/>
<path d="" fill="#63E6A9" transform="translate(0,0)"/>
<path d="" fill="#5DE2A8" transform="translate(0,0)"/>
<path d="" fill="#5FE7A8" transform="translate(0,0)"/>
<path d="" fill="#5FE5A6" transform="translate(0,0)"/>
<path d="" fill="#60E8A9" transform="translate(0,0)"/>
<path d="" fill="#64ECA9" transform="translate(0,0)"/>
<path d="" fill="#5FE3A8" transform="translate(0,0)"/>
<path d="" fill="#5FE4A8" transform="translate(0,0)"/>
<path d="" fill="#61E7A9" transform="translate(0,0)"/>
<path d="" fill="#61EAA9" transform="translate(0,0)"/>
<path d="" fill="#61E8A7" transform="translate(0,0)"/>
<path d="" fill="#62E7A9" transform="translate(0,0)"/>
<path d="" fill="#60E6A7" transform="translate(0,0)"/>
<path d="" fill="#62E8A8" transform="translate(0,0)"/>
<path d="" fill="#61E6A7" transform="translate(0,0)"/>
<path d="" fill="#5FE7A8" transform="translate(0,0)"/>
<path d="" fill="#5FE5AD" transform="translate(0,0)"/>
<path d="" fill="#5DE6AA" transform="translate(0,0)"/>
<path d="" fill="#5DE9A8" transform="translate(0,0)"/>
<path d="" fill="#60E8A9" transform="translate(0,0)"/>
<path d="" fill="#61E4A7" transform="translate(0,0)"/>
<path d="" fill="#5EE5AA" transform="translate(0,0)"/>
<path d="" fill="#62E6A9" transform="translate(0,0)"/>
<path d="" fill="#5FE6AA" transform="translate(0,0)"/>
<path d="" fill="#62E9AE" transform="translate(0,0)"/>
<path d="" fill="#61E9AC" transform="translate(0,0)"/>
<path d="" fill="#60E8AB" transform="translate(0,0)"/>
<path d="" fill="#5EE8B0" transform="translate(0,0)"/>
<path d="" fill="#5FE8AB" transform="translate(0,0)"/>
<path d="" fill="#5FE7AB" transform="translate(0,0)"/>
<path d="" fill="#5EE7AA" transform="translate(0,0)"/>
<path d="" fill="#63E9AB" transform="translate(0,0)"/>
<path d="" fill="#60E3AB" transform="translate(0,0)"/>
<path d="" fill="#62E5A7" transform="translate(0,0)"/>
<path d="" fill="#61E8AB" transform="translate(0,0)"/>
<path d="" fill="#64EBAE" transform="translate(0,0)"/>
<path d="" fill="#60E9AC" transform="translate(0,0)"/>
<path d="" fill="#63E9A7" transform="translate(0,0)"/>
<path d="" fill="#63E9AA" transform="translate(0,0)"/>
<path d="" fill="#64E7A9" transform="translate(0,0)"/>
<path d="" fill="#61E6AA" transform="translate(0,0)"/>
<path d="" fill="#62EAA8" transform="translate(0,0)"/>
<path d="" fill="#64E8AE" transform="translate(0,0)"/>
<path d="" fill="#66EBAE" transform="translate(0,0)"/>
<path d="" fill="#61E3A4" transform="translate(0,0)"/>
<path d="" fill="#63EBA9" transform="translate(0,0)"/>
<path d="" fill="#63EBAC" transform="translate(0,0)"/>
<path d="" fill="#5FE7AB" transform="translate(0,0)"/>
<path d="" fill="#5FE7A8" transform="translate(0,0)"/>
<path d="" fill="#61E9A7" transform="translate(0,0)"/>
<path d="" fill="#62EAAA" transform="translate(0,0)"/>
<path d="" fill="#5FE6A8" transform="translate(0,0)"/>
<path d="" fill="#62E8AA" transform="translate(0,0)"/>
<path d="" fill="#5FE8AA" transform="translate(0,0)"/>
<path d="" fill="#60E9AA" transform="translate(0,0)"/>
<path d="" fill="#61EAA9" transform="translate(0,0)"/>
<path d="" fill="#5FEBAB" transform="translate(0,0)"/>
<path d="" fill="#62EBAA" transform="translate(0,0)"/>
<path d="" fill="#61EAAA" transform="translate(0,0)"/>
<path d="" fill="#61EAAB" transform="translate(0,0)"/>
<path d="" fill="#62E9AD" transform="translate(0,0)"/>
<path d="" fill="#61EBAA" transform="translate(0,0)"/>
<path d="" fill="#62E8AB" transform="translate(0,0)"/>
<path d="" fill="#61E5A9" transform="translate(0,0)"/>
<path d="" fill="#63E9AD" transform="translate(0,0)"/>
<path d="" fill="#61E8AA" transform="translate(0,0)"/>
<path d="" fill="#62E9A9" transform="translate(0,0)"/>
<path d="" fill="#61E8A8" transform="translate(0,0)"/>
<path d="" fill="#62E6A9" transform="translate(0,0)"/>
<path d="" fill="#60E8AA" transform="translate(0,0)"/>
<path d="" fill="#60EAA9" transform="translate(0,0)"/>
<path d="" fill="#61E9A9" transform="translate(0,0)"/>
<path d="" fill="#62ECAC" transform="translate(0,0)"/>
<path d="" fill="#63EBAF" transform="translate(0,0)"/>
<path d="" fill="#5EE7AC" transform="translate(0,0)"/>
<path d="" fill="#64ECAE" transform="translate(0,0)"/>
<path d="" fill="#62EAAC" transform="translate(0,0)"/>
<path d="" fill="#61E6AA" transform="translate(0,0)"/>
<path d="" fill="#61E7A9" transform="translate(0,0)"/>
<path d="" fill="#61E8AA" transform="translate(0,0)"/>
<path d="" fill="#61EAAB" transform="translate(0,0)"/>
<path d="" fill="#60EAAA" transform="translate(0,0)"/>
<path d="" fill="#60EAAC" transform="translate(0,0)"/>
<path d="" fill="#63E6A9" transform="translate(0,0)"/>
<path d="" fill="#62E9AD" transform="translate(0,0)"/>
<path d="" fill="#63E9AB" transform="translate(0,0)"/>
<path d="" fill="#62E9AC" transform="translate(0,0)"/>
<path d="" fill="#60E6AB" transform="translate(0,0)"/>
<path d="" fill="#61ECAD" transform="translate(0,0)"/>
<path d="" fill="#61EAAC" transform="translate(0,0)"/>
<path d="" fill="#63EDAE" transform="translate(0,0)"/>
<path d="" fill="#61E9AD" transform="translate(0,0)"/>
<path d="" fill="#63EBB0" transform="translate(0,0)"/>
<path d="" fill="#60EAAC" transform="translate(0,0)"/>
<path d="" fill="#5FE9AB" transform="translate(0,0)"/>
<path d="" fill="#64E8AD" transform="translate(0,0)"/>
<path d="" fill="#64EAAB" transform="translate(0,0)"/>
<path d="" fill="#62EDAE" transform="translate(0,0)"/>
<path d="" fill="#66EBAF" transform="translate(0,0)"/>
<path d="" fill="#64ECAD" transform="translate(0,0)"/>
<path d="" fill="#61EAAE" transform="translate(0,0)"/>
<path d="" fill="#62E8AD" transform="translate(0,0)"/>
<path d="" fill="#62ECAE" transform="translate(0,0)"/>
<path d="" fill="#64EDAF" transform="translate(0,0)"/>
<path d="" fill="#64EDB0" transform="translate(0,0)"/>
<path d="" fill="#63ECAF" transform="translate(0,0)"/>
<path d="" fill="#64EBB0" transform="translate(0,0)"/>
<path d="" fill="#63EAAD" transform="translate(0,0)"/>
<path d="" fill="#62E5A9" transform="translate(0,0)"/>
<path d="" fill="#64ECB0" transform="translate(0,0)"/>
<path d="" fill="#65EBAE" transform="translate(0,0)"/>
<path d="" fill="#61E7AB" transform="translate(0,0)"/>
<path d="" fill="#63E8AA" transform="translate(0,0)"/>
<path d="" fill="#61E8AC" transform="translate(0,0)"/>
<path d="" fill="#62E8AD" transform="translate(0,0)"/>
<path d="" fill="#5FDEA6" transform="translate(0,0)"/>
<path d="" fill="#61E0A7" transform="translate(0,0)"/>
<path d="" fill="#59DDA2" transform="translate(0,0)"/>
<path d="" fill="#5DDBA7" transform="translate(0,0)"/>
<path d="" fill="#61DFA3" transform="translate(0,0)"/>
<path d="" fill="#5FE0A5" transform="translate(0,0)"/>
<path d="" fill="#61E7AC" transform="translate(0,0)"/>
<path d="" fill="#5FE5AB" transform="translate(0,0)"/>
<path d="" fill="#60E9AA" transform="translate(0,0)"/>
<path d="" fill="#5FE6AC" transform="translate(0,0)"/>
<path d="" fill="#61E6AC" transform="translate(0,0)"/>
<path d="" fill="#60E8AD" transform="translate(0,0)"/>
<path d="" fill="#5FE9AE" transform="translate(0,0)"/>
<path d="" fill="#5FE7AB" transform="translate(0,0)"/>
<path d="" fill="#5FE7AD" transform="translate(0,0)"/>
<path d="" fill="#5FE3A9" transform="translate(0,0)"/>
<path d="" fill="#61E9AB" transform="translate(0,0)"/>
<path d="" fill="#60E8AC" transform="translate(0,0)"/>
<path d="" fill="#63EAAF" transform="translate(0,0)"/>
<path d="" fill="#60ECAC" transform="translate(0,0)"/>
<path d="" fill="#63EAAC" transform="translate(0,0)"/>
<path d="" fill="#60E7AA" transform="translate(0,0)"/>
<path d="" fill="#62E8AE" transform="translate(0,0)"/>
<path d="" fill="#61E9AD" transform="translate(0,0)"/>
<path d="" fill="#61EBAD" transform="translate(0,0)"/>
<path d="" fill="#60ECAC" transform="translate(0,0)"/>
<path d="" fill="#62EBAA" transform="translate(0,0)"/>
<path d="" fill="#61E9AC" transform="translate(0,0)"/>
<path d="" fill="#61E8AD" transform="translate(0,0)"/>
<path d="" fill="#64E8AC" transform="translate(0,0)"/>
<path d="" fill="#61EAAC" transform="translate(0,0)"/>
<path d="" fill="#62ECB1" transform="translate(0,0)"/>
<path d="" fill="#62EDAB" transform="translate(0,0)"/>
<path d="" fill="#62EAAB" transform="translate(0,0)"/>
<path d="" fill="#63E8AA" transform="translate(0,0)"/>
<path d="" fill="#62E9AC" transform="translate(0,0)"/>
<path d="" fill="#61ECAB" transform="translate(0,0)"/>
<path d="" fill="#61E2A7" transform="translate(0,0)"/>
<path d="" fill="#62EAAD" transform="translate(0,0)"/>
<path d="" fill="#62EBAC" transform="translate(0,0)"/>
<path d="" fill="#5FE9A9" transform="translate(0,0)"/>
<path d="" fill="#5DE9AB" transform="translate(0,0)"/>
<path d="" fill="#61EAAD" transform="translate(0,0)"/>
<path d="" fill="#63EAAA" transform="translate(0,0)"/>
<path d="" fill="#63EBAD" transform="translate(0,0)"/>
<path d="" fill="#60E7AC" transform="translate(0,0)"/>
<path d="" fill="#61EAB1" transform="translate(0,0)"/>
<path d="" fill="#61E6AA" transform="translate(0,0)"/>
<path d="" fill="#61E8AC" transform="translate(0,0)"/>
<path d="" fill="#62ECAD" transform="translate(0,0)"/>
<path d="" fill="#65E9AB" transform="translate(0,0)"/>
<path d="" fill="#64E7AB" transform="translate(0,0)"/>
<path d="" fill="#64EAAE" transform="translate(0,0)"/>
<path d="" fill="#64EAAB" transform="translate(0,0)"/>
<path d="" fill="#65E9AB" transform="translate(0,0)"/>
<path d="" fill="#61EAAE" transform="translate(0,0)"/>
<path d="" fill="#61ECAD" transform="translate(0,0)"/>
<path d="" fill="#60EAAB" transform="translate(0,0)"/>
<path d="" fill="#63ECAC" transform="translate(0,0)"/>
<path d="" fill="#63EAAD" transform="translate(0,0)"/>
<path d="" fill="#64ECAC" transform="translate(0,0)"/>
<path d="" fill="#61EBB0" transform="translate(0,0)"/>
<path d="" fill="#67ECAD" transform="translate(0,0)"/>
<path d="" fill="#61E8AE" transform="translate(0,0)"/>
<path d="" fill="#63E7A9" transform="translate(0,0)"/>
<path d="" fill="#64E8AB" transform="translate(0,0)"/>
<path d="" fill="#5FE9AE" transform="translate(0,0)"/>
<path d="" fill="#61E8AD" transform="translate(0,0)"/>
<path d="" fill="#60E8AC" transform="translate(0,0)"/>
<path d="" fill="#63E9AC" transform="translate(0,0)"/>
<path d="" fill="#64EBAA" transform="translate(0,0)"/>
<path d="" fill="#60E9AD" transform="translate(0,0)"/>
<path d="" fill="#60E7A8" transform="translate(0,0)"/>
<path d="" fill="#61E9AA" transform="translate(0,0)"/>
<path d="" fill="#61E7AB" transform="translate(0,0)"/>
<path d="" fill="#61E7A9" transform="translate(0,0)"/>
<path d="" fill="#60E7A8" transform="translate(0,0)"/>
<path d="" fill="#61E7A8" transform="translate(0,0)"/>
<path d="" fill="#61E9AC" transform="translate(0,0)"/>
<path d="" fill="#64E2A6" transform="translate(0,0)"/>
</svg>
