<svg width="32" height="32" viewBox="0 0 32 32" fill="none" xmlns="http://www.w3.org/2000/svg">
  <path d="M16 0C7.163 0 0 7.163 0 16C0 24.837 7.163 32 16 32C24.837 32 32 24.837 32 16C32 7.163 24.837 0 16 0ZM16 28C8.82 28 4 23.18 4 16C4 8.82 8.82 4 16 4C23.18 4 28 8.82 28 16C28 23.18 23.18 28 16 28Z" fill="#1A2E40"/>
  <path d="M16 8C11.582 8 8 11.582 8 16C8 20.418 11.582 24 16 24C20.418 24 24 20.418 24 16C24 11.582 20.418 8 16 8ZM16 20C13.791 20 12 18.209 12 16C12 13.791 13.791 12 16 12C18.209 12 20 13.791 20 16C20 18.209 18.209 20 16 20Z" fill="#0ABAB5"/>
  <path d="M16 14C14.895 14 14 14.895 14 16C14 17.105 14.895 18 16 18C17.105 18 18 17.105 18 16C18 14.895 17.105 14 16 14Z" fill="#1A2E40"/>
  <path d="M20 12L12 20" stroke="#0ABAB5" stroke-width="1.5" stroke-linecap="round"/>
  <path d="M12 12L20 20" stroke="#0ABAB5" stroke-width="1.5" stroke-linecap="round"/>
</svg>

