<svg width="240" height="120" viewBox="0 0 240 120" fill="none" xmlns="http://www.w3.org/2000/svg">
  <path d="M120 20C97.909 20 80 37.909 80 60C80 82.091 97.909 100 120 100C142.091 100 160 82.091 160 60C160 37.909 142.091 20 120 20ZM120 92C102.327 92 88 77.673 88 60C88 42.327 102.327 28 120 28C137.673 28 152 42.327 152 60C152 77.673 137.673 92 120 92Z" fill="#1A2E40"/>
  <path d="M120 36C106.745 36 96 46.745 96 60C96 73.255 106.745 84 120 84C133.255 84 144 73.255 144 60C144 46.745 133.255 36 120 36ZM120 76C111.163 76 104 68.837 104 60C104 51.163 111.163 44 120 44C128.837 44 136 51.163 136 60C136 68.837 128.837 76 120 76Z" fill="#0ABAB5"/>
  <path d="M120 52C115.582 52 112 55.582 112 60C112 64.418 115.582 68 120 68C124.418 68 128 64.418 128 60C128 55.582 124.418 52 120 52Z" fill="#1A2E40"/>
  <path d="M136 44L104 76" stroke="#0ABAB5" stroke-width="4" stroke-linecap="round"/>
  <path d="M104 44L136 76" stroke="#0ABAB5" stroke-width="4" stroke-linecap="round"/>
  <path d="M48 40H60V80H48V40Z" fill="#1A2E40"/>
  <path d="M64 40H76L88 64L100 40H112V80H100V52L88 76H76V40Z" fill="#1A2E40"/>
  <path d="M128 40C121.373 40 116 45.373 116 52V68C116 74.627 121.373 80 128 80H140C146.627 80 152 74.627 152 68V52C152 45.373 146.627 40 140 40H128ZM128 52H140V68H128V52Z" fill="#1A2E40"/>
  <path d="M156 40H168V68H180V40H192V68C192 74.627 186.627 80 180 80H168C161.373 80 156 74.627 156 68V40Z" fill="#1A2E40"/>
</svg>

