<svg width="180" height="40" viewBox="0 0 180 40" fill="none" xmlns="http://www.w3.org/2000/svg">
  <path d="M20 0C8.954 0 0 8.954 0 20C0 31.046 8.954 40 20 40C31.046 40 40 31.046 40 20C40 8.954 31.046 0 20 0ZM20 36C11.163 36 4 28.837 4 20C4 11.163 11.163 4 20 4C28.837 4 36 11.163 36 20C36 28.837 28.837 36 20 36Z" fill="#1A2E40"/>
  <path d="M20 8C13.373 8 8 13.373 8 20C8 26.627 13.373 32 20 32C26.627 32 32 26.627 32 20C32 13.373 26.627 8 20 8ZM20 28C15.582 28 12 24.418 12 20C12 15.582 15.582 12 20 12C24.418 12 28 15.582 28 20C28 24.418 24.418 28 20 28Z" fill="#0ABAB5"/>
  <path d="M20 16C17.791 16 16 17.791 16 20C16 22.209 17.791 24 20 24C22.209 24 24 22.209 24 20C24 17.791 22.209 16 20 16Z" fill="#1A2E40"/>
  <path d="M28 12L12 28" stroke="#0ABAB5" stroke-width="2" stroke-linecap="round"/>
  <path d="M12 12L28 28" stroke="#0ABAB5" stroke-width="2" stroke-linecap="round"/>
  <path d="M48 14H52V26H48V14Z" fill="#1A2E40"/>
  <path d="M54 14H58L62 22L66 14H70V26H66V18L62 26H58V14Z" fill="#1A2E40"/>
  <path d="M76 14C73.791 14 72 15.791 72 18V22C72 24.209 73.791 26 76 26H80C82.209 26 84 24.209 84 22V18C84 15.791 82.209 14 80 14H76ZM76 18H80V22H76V18Z" fill="#1A2E40"/>
  <path d="M86 14H90V22H94V14H98V22C98 24.209 96.209 26 94 26H90C87.791 26 86 24.209 86 22V14Z" fill="#1A2E40"/>
  <path d="M100 14H108C110.209 14 112 15.791 112 18V26H108V22H104V26H100V18C100 15.791 101.791 14 104 14H108ZM104 18V18.5H108V18H104Z" fill="#1A2E40"/>
  <path d="M114 14H118V22H122V14H126V22C126 24.209 124.209 26 122 26H118C115.791 26 114 24.209 114 22V14Z" fill="#1A2E40"/>
  <path d="M128 14H132L136 20V14H140V26H136L132 20V26H128V14Z" fill="#1A2E40"/>
  <path d="M148 14H152L156 26H152L151 23H145L144 26H140L144 14H148ZM146 19H150L148 14L146 19Z" fill="#1A2E40"/>
  <path d="M158 14H166C168.209 14 170 15.791 170 18V22C170 24.209 168.209 26 166 26H158V14ZM162 18V22H166V18H162Z" fill="#1A2E40"/>
  <path d="M172 14H180V18H176V26H172V14Z" fill="#1A2E40"/>
</svg>

